<svg width="24" height="25" viewBox="0 0 24 25" fill="none" xmlns="http://www.w3.org/2000/svg">
<g id="icon/breez">
<path id="Vector" d="M19.9472 10.504C21.0897 11.0053 21.999 11.7631 22.6752 12.7774C23.3514 13.7916 23.6895 14.9341 23.6895 16.2165C23.6895 17.3474 23.4097 18.3733 22.8617 19.3176C22.3254 20.2503 21.5443 21.0197 20.6117 21.556C19.6674 22.1039 18.6298 22.3837 17.499 22.3837H14.8875V23.0483C14.8875 23.398 14.7476 23.7011 14.4678 23.9459C14.188 24.2024 13.8383 24.319 13.4302 24.319C13.0805 24.319 12.7657 24.1908 12.4976 23.9459C12.2294 23.6895 12.0895 23.3863 12.0895 23.0366V22.3721H7.43793C7.02989 22.3721 6.6918 22.2205 6.42367 21.9174C6.15553 21.6143 6.02729 21.2529 6.0506 20.8215C6.13221 20.4951 6.30708 20.2036 6.59854 19.9472C6.88999 19.6907 7.20476 19.5741 7.53119 19.5741H17.3824C18.0003 19.5741 18.5715 19.4226 19.0961 19.1078C19.6091 18.8047 20.0521 18.3733 20.3552 17.8604C20.67 17.3591 20.8332 16.7645 20.8332 16.1699C20.8332 15.3772 20.5767 14.6777 20.0754 14.0714C19.5741 13.4652 18.9446 13.0805 18.1868 12.9056C18.0352 12.824 17.7554 12.789 17.3707 12.789H14.701C14.3279 12.8007 13.9665 12.6608 13.6984 12.416C13.4186 12.1595 13.2437 11.868 13.1854 11.5183C13.1504 11.1103 13.2554 10.7722 13.5235 10.504C13.78 10.2359 14.1181 10.0843 14.5261 10.0727H15.7152C16.4147 10.0144 16.9976 9.72293 17.4756 9.18666C17.9536 8.65038 18.1868 8.02084 18.1868 7.27471C18.1868 6.49362 17.9303 5.85241 17.429 5.33945C16.9277 4.82649 16.2982 4.57001 15.5404 4.57001H9.87449C9.52474 4.57001 9.22163 4.44177 8.97681 4.17363C8.72033 3.91715 8.60375 3.60238 8.60375 3.25264C8.60375 2.87958 8.73199 2.5648 8.97681 2.30832C9.23329 2.05184 9.52474 1.91194 9.87449 1.91194H12.0895V1.30572C12.0895 0.932655 12.2294 0.629542 12.4976 0.373062C12.7657 0.116582 13.0805 0 13.4302 0C13.8383 0 14.1764 0.12824 14.4678 0.373062C14.7476 0.629542 14.8875 0.932655 14.8875 1.30572V1.91194H15.552C16.543 1.91194 17.4523 2.15677 18.2801 2.63475C19.1078 3.11274 19.7956 3.78891 20.2736 4.61664C20.7632 5.45603 21.0197 6.36537 21.0197 7.35632C21.0197 8.47551 20.6583 9.52474 19.9472 10.504ZM14.0365 7.4729C14.0365 7.82265 13.8966 8.13742 13.6051 8.42887C13.3137 8.72033 12.9872 8.86023 12.6142 8.86023H6.40035C6.01563 8.86023 5.6892 8.72033 5.42106 8.42887C5.15292 8.13742 5.02468 7.82265 5.02468 7.4729C5.02468 7.08818 5.15292 6.73844 5.42106 6.43532C5.6892 6.13221 6.00397 5.98065 6.40035 5.98065H12.6258C12.9989 5.98065 13.3253 6.13221 13.6168 6.43532C13.8966 6.73844 14.0365 7.07652 14.0365 7.4729ZM9.04676 11.5183C9.04676 11.9263 8.91852 12.2644 8.65038 12.5326C8.3939 12.8007 8.04416 12.9406 7.6128 12.9406H1.4223C1.01426 12.9406 0.676175 12.8007 0.408037 12.5209C0.139898 12.2528 0 11.8914 0 11.5183C0 11.1452 0.139898 10.8421 0.408037 10.5856C0.676175 10.3292 1.01426 10.2126 1.4223 10.2126H7.6128C8.04416 10.2126 8.38224 10.3292 8.65038 10.574C8.90686 10.8188 9.04676 11.1336 9.04676 11.5183ZM14.3279 16.2049C14.3279 16.578 14.188 16.951 13.9315 17.2192C13.6751 17.5106 13.3603 17.6622 12.9872 17.6622H4.16198C3.78891 17.6622 3.47414 17.5223 3.21766 17.2192C2.96118 16.9394 2.82128 16.578 2.82128 16.2049C2.82128 15.8202 2.94952 15.4937 3.19435 15.2489C3.45083 14.9924 3.7656 14.8759 4.15032 14.8759H12.9989C13.372 14.8759 13.6867 15.0041 13.9432 15.2489C14.1997 15.5054 14.3279 15.8202 14.3279 16.2049Z" fill="#18181B"/>
</g>
</svg>
