<svg width="676" height="624" viewBox="0 0 676 624" fill="none" xmlns="http://www.w3.org/2000/svg">
    <path d="M343.833 5.72946C343.203 6.76458 342.245 8.35177 341.322 9.86995C338.768 9.4214 336.542 9.03323 334.316 8.64506C334.161 9.00735 334.005 9.36102 333.85 9.72331C338.509 12.3974 343.168 15.0628 347.827 17.7369C348.19 17.3918 348.561 17.0468 348.923 16.6931L346.757 11.207C347.146 11.0258 347.534 10.8447 347.914 10.6635C348.543 11.9143 349.337 13.1047 349.777 14.4245C351.011 18.0561 353.228 19.6605 357.163 18.703C360.122 17.9784 362.331 17.9094 364.41 21.5065C366.179 24.5687 370.484 26.061 373.323 28.6229C377.3 32.22 380.924 36.0413 382.736 41.4757C383.625 44.1239 386.541 46.0475 388.335 48.4542C389.535 50.0672 392.615 51.2145 390.182 54.1905C389.983 54.432 391.381 55.9416 392.02 56.8818C394.634 60.7376 398.275 64.3433 396.109 69.6483C394.246 74.2115 396.42 77.9466 398.094 81.88C398.982 83.9675 399.56 86.1844 400.32 88.3323C401.441 91.5153 402.589 94.6897 403.633 97.5967C403.805 97.6484 402.917 97.3896 400.777 96.7686C404.832 101.142 409.353 101.591 413.805 102.91C412.088 105.101 410.492 107.534 408.49 109.57C406.566 111.519 407.11 112.554 409.017 113.986C410.13 114.823 411.432 116.255 411.519 117.497C412.011 124.941 415.962 131.023 419.06 137.414C420.992 141.4 423.952 144.91 425.634 148.973C426.367 150.733 424.978 153.338 424.668 155.572C424.305 158.16 423.995 160.765 423.805 163.37C423.624 165.854 423.27 168.408 423.658 170.823C424.167 173.997 425.315 177.068 425.945 179.302C423.745 177.75 421.035 175.843 417.619 173.437C417.17 179.277 412.778 184.15 418.309 189.369C419.922 190.896 419.991 194.062 420.966 197.072C419.491 196.667 418.766 196.477 417.42 196.106C420.449 205.198 415.893 212.892 413.503 220.914C412.433 224.486 410.656 228.005 408.516 231.067C405.54 235.32 401.381 237.373 395.799 237.787C389.983 238.218 384.28 240.349 378.56 241.867C377.878 242.048 377.111 242.945 376.903 243.67C373.754 254.504 370.596 265.347 367.706 276.25C367.275 277.872 367.887 279.96 368.526 281.65C372.684 292.648 378.646 302.905 387.024 310.867C392.615 316.18 400.535 319.311 407.809 322.546C424.418 329.93 441.354 336.564 457.998 343.878C477.419 352.427 496.703 361.303 515.977 370.188C533.665 378.339 551.292 386.629 568.875 395.005C574.527 397.696 580.558 400.129 585.346 404.002C592.404 409.704 599.116 416.078 604.888 423.074C623.395 445.51 633.801 472.423 645.345 498.647C649.538 508.17 653.99 517.771 656.518 527.794C660.565 543.864 662.972 560.349 666.319 576.609C669.115 590.195 672.29 603.703 675.223 617.254C675.672 619.325 675.724 621.481 676 624H0C2.4072 616.124 4.69361 608.62 6.99727 601.124C7.87732 598.243 8.55893 595.284 9.7237 592.524C15.4009 579.076 12.9851 565.274 12.036 551.446C11.3803 541.88 11.4062 532.219 11.8634 522.636C12.0705 518.314 13.9773 514.044 15.2887 509.809C20.2929 493.652 24.1669 477.012 30.8104 461.555C35.573 450.462 43.0449 440.076 51.0947 430.932C72.4921 406.624 97.1853 386.387 127.754 374.164C140.135 369.213 152.206 363.485 164.423 358.129C176.364 352.901 188.288 347.648 200.272 342.533C203.551 341.135 205.268 339.031 206.467 335.528C208.883 328.498 212.17 321.77 215.078 314.912C216.078 312.549 217.226 310.211 217.925 307.753C218.227 306.709 217.942 304.69 217.252 304.294C211.661 301.093 210.971 294.667 207.623 290C196.441 274.43 189.599 256.842 185.13 238.279C185.001 237.727 184.638 237.157 184.699 236.631C185.423 230.222 182.084 225.659 177.658 221.794C172.55 217.343 170.229 211.762 169.858 205.163C169.815 204.473 169.513 203.8 169.341 203.153C162.904 202.851 155.269 195.304 154.44 188.826C154.104 186.16 153.638 183.348 152.43 181.01C151.593 179.38 149.419 177.465 147.797 177.413C143.724 177.284 141.352 175.265 139.652 172.074C137.857 168.701 135.813 167.131 131.706 168.787C130.204 169.391 127.072 168.563 126.167 167.312C125.261 166.061 125.433 162.844 126.469 161.585C130.472 156.711 134.691 151.975 142.232 152.889C143.793 153.079 146.037 151.009 147.331 149.456C149.911 146.342 152.171 142.944 154.311 139.511C156.313 136.302 158.228 132.989 159.764 129.539C162.827 122.655 165.708 115.677 168.452 108.655C169.531 105.904 169.85 102.859 170.868 100.072C171.791 97.5622 173.353 95.2935 174.371 92.8092C175.32 90.4802 176.381 88.0476 176.588 85.5979C176.959 81.0951 178.668 77.4031 181.472 73.9613C184.414 70.3557 187.201 66.6033 189.737 62.713C190.479 61.5744 190.764 59.4351 190.195 58.2792C186.329 50.4382 191.446 45.2712 195.475 39.8627C197.261 37.4646 199.375 35.679 202.705 34.6784C204.948 34.0056 206.355 30.0117 207.77 27.3204C208.529 25.8712 208.762 24.0166 208.779 22.3432C208.831 17.9439 211.644 16.6414 215.276 16.3654C221.773 15.8737 226.579 12.3801 230.366 7.55818C233.602 3.44356 237.847 1.44232 242.618 0.182922C243.636 -0.0844849 245.146 -0.110363 245.888 0.458955C250.142 3.70234 255.12 2.97775 259.9 3.38318C260.892 3.46944 261.893 3.52982 262.885 3.65058C269.347 4.44418 275.818 5.20327 282.272 6.0745C286.042 6.58343 289.796 7.81696 293.54 7.74795C297.578 7.66169 301.599 6.43679 305.619 5.70358C308.518 5.17739 311.409 4.29754 314.325 4.1854C322.142 3.88349 329.967 3.80585 337.793 3.88349C339.57 3.90074 341.33 4.93586 343.789 5.72083L343.833 5.72946Z" fill="#1F1F22"/>
</svg>
