<svg width="680" height="699" viewBox="0 0 680 699" fill="none" xmlns="http://www.w3.org/2000/svg">
<path d="M116.543 547.639C116.489 549.559 109.45 606.42 108.294 644.28C107.649 665.427 108.294 698.456 108.294 698.456L369.801 696.288C368.876 692.417 395.833 634.377 344.434 541.818C343.847 539.71 342.57 537.783 342.115 535.66C340.682 529.031 339.742 522.278 338.12 515.697C336.89 510.714 337.47 506.655 341.018 502.73C345.154 498.144 344.994 497.916 341.405 492.818L341.3 492.67C340.4 491.393 339.279 490.249 338.559 488.878C337.916 487.656 337.203 486.152 337.36 484.875C338.034 479.344 339.224 473.867 339.828 468.328C340.666 460.587 342.045 452.752 341.567 445.059C340.901 434.176 338.66 423.396 337.297 412.544C337.015 410.311 337.188 407.812 337.916 405.697C339.303 401.638 341.018 397.658 343 393.851C348.954 382.428 351.046 369.946 353.132 357.497L353.239 356.855C354.704 348.119 355.425 339.266 356.514 330.467C357.015 326.393 358.864 324.928 362.178 327.106C368.719 331.423 376.17 330.366 383.189 331.557C392.629 333.155 402.218 333.868 411.736 335.051C412.699 335.168 413.718 335.74 414.478 336.383C419.719 340.809 422.978 341.029 428.916 337.926C433.295 335.631 436.977 331.854 442.547 331.948C448.861 332.058 453.945 329.261 458.52 324.881C460.111 323.354 463.182 323.259 465.634 322.782C468.493 322.233 471.682 322.594 474.251 321.473C480.315 318.817 485.994 315.299 492.019 312.534C500.283 308.742 508.431 303.845 517.158 302.161C526.371 300.382 535.035 298.165 543.339 293.84C551.76 289.46 558.889 283.96 563.488 275.452C565.392 271.918 567.883 268.957 572.693 269.772C573.766 269.952 575.027 269.537 576.085 269.121C581.655 266.928 587.139 264.475 592.764 262.43C596.861 260.942 601.24 260.213 605.306 258.646C608.427 257.439 611.335 255.613 614.193 253.817L614.464 253.648C615.004 253.303 615.216 251.744 614.965 250.945C614.15 248.375 615.208 247.709 617.574 247.607C626.951 247.208 635.819 245.233 643.418 239.216C644.562 238.315 646.238 237.994 647.727 237.633C652.78 236.396 657.128 230.355 657.01 225.255C656.971 223.586 657.746 221.4 658.937 220.303C661.28 218.141 662.165 215.822 661.037 212.993C660.018 210.416 660.661 208.723 662.517 206.772C665.894 203.231 664.977 197.668 660.864 194.965C659.995 194.393 659.008 194.002 658.138 193.43C653.782 190.554 653.869 187.695 658.514 185.478C664.045 182.837 669.623 180.291 675.271 177.933C678.13 176.742 680.622 175.606 679.862 171.845C679.055 167.857 676.188 165.052 672.38 166.141C663.81 168.586 655.31 171.453 647.1 174.908C641.037 177.463 635.788 182.218 629.607 184.153C623.695 186.003 618.609 188.876 613.367 191.838L613.171 191.949C604.005 197.128 597.127 205.683 586.888 209.311C582 211.042 577.472 213.761 572.654 215.735C560.824 220.577 548.932 225.278 537.033 229.955C534.252 231.044 531.008 231.311 528.588 232.893C523.01 236.537 517.354 236.897 511.102 235.252C507.122 234.202 502.916 235.064 500.323 238.284C497.181 242.193 493.389 242.961 488.924 242.53C486.339 242.279 483.746 242.021 481.184 241.621C476.163 240.838 471.423 241.026 466.864 243.839C465.305 244.802 462.798 245.218 461.082 244.693C457.737 243.666 454.956 244.301 452.112 245.883C448.806 247.725 445.547 249.66 442.147 251.289C437.643 253.452 433.726 251.924 431.438 247.544C430.937 246.581 430.06 245.28 429.19 245.139C424.67 244.395 420.095 242.609 415.676 246.032C414.627 246.847 412.034 246.941 410.921 246.205C405.727 242.75 400.627 239.091 395.833 235.095C391.493 231.475 386.745 229.846 381.168 229.666C379.405 229.603 377.525 228.224 375.989 227.072C373.514 225.215 371.587 222.074 368.876 221.188C359.53 218.148 351.077 214.09 345.131 205.911C344.693 205.299 343.925 204.923 343.314 204.438C340.447 202.15 338.778 199.298 338.151 195.569C337.791 193.383 336.819 190.719 335.198 189.45C330.513 185.783 326.416 181.795 323.462 176.569C322.773 175.347 321.05 174.658 319.726 173.859C309.871 167.904 298.801 165.781 287.638 164.864C281.433 164.355 276.795 162.467 272.855 157.75C270.771 155.243 270.278 153.441 272.189 150.581C280.752 137.764 285.773 123.693 286.839 108.219C287.238 102.413 288.468 96.6705 288.915 90.865C289.165 87.5666 288.844 84.1585 288.304 80.8835C287.888 78.4077 286.47 76.1122 285.938 73.6442C285.005 69.3194 284.512 64.8928 283.642 60.5523C283.055 57.6221 280.635 46.6344 277.715 38.3903C274.352 28.8971 270.677 24.2853 266.58 16.6072C263.705 11.2247 256.764 7.05663 250.724 4.5025C230.7 -3.9512 211.209 0.632132 192.212 8.9213C191.632 9.17202 191.076 9.58726 190.637 10.0495C185.663 15.2753 180.007 20.0388 175.964 25.9149C171.891 31.8301 167.652 38.1371 167.919 46.0502C168.013 48.6122 167.504 51.1898 167.323 53.7674C166.9 59.9099 166.219 66.0602 166.242 72.2026C166.25 74.8978 166.015 76.5039 163.422 77.7966C156.904 81.0402 153.888 91.1706 158.095 96.9683C163.203 103.996 169.055 110.483 174.437 117.323C175.392 118.537 176.082 120.308 176.105 121.828C176.129 123.403 175.189 124.993 174.491 127.116C172.972 128.292 170.261 129.647 168.702 131.817C167.096 134.05 166.908 137.255 165.569 139.746C162.129 146.116 162.451 154.24 152.431 157.092C142.121 160.022 132.869 166.643 123.155 171.641C115.917 175.363 109.195 180.166 102.113 183.856C87.5107 191.463 75.0703 201.46 63.6876 212.97C57.4987 219.23 54.1771 227.166 52.9785 235.941C52.6886 238.104 52.4928 240.336 51.7877 242.381C45.6772 260.119 39.4179 277.802 33.2995 295.532C30.3304 304.143 27.6042 312.839 24.7213 321.481C21.055 332.465 17.2085 343.403 13.6832 354.434C11.5054 361.25 9.75056 368.207 7.83907 375.102C6.47596 379.999 4.03959 384.919 4.10226 389.8C4.18843 396.938 2.6138 403.276 0.255774 409.873C-0.739142 412.654 1.43871 416.564 2.1751 419.956C7.32203 420.089 8.28561 424.947 11.0745 427.767C13.0722 429.773 15.1795 431.74 17.4984 433.338C21.3605 435.994 25.3324 438.524 29.4374 440.781C32.6101 442.528 35.9474 444.62 39.4022 445.059C46.0297 445.905 51.5292 448.396 56.2453 452.98C56.8563 453.575 57.7416 453.998 58.5798 454.249C66.6096 456.678 74.6003 459.31 82.732 461.339C88.8033 462.851 95.0313 463.956 101.299 461.566C102.544 461.089 104.589 461.394 105.709 462.154C110.057 465.131 111.216 473.64 108.294 478.145C107.581 479.249 106.97 480.777 107.104 482.023C107.824 488.808 113.143 491.37 118.525 493.493C120.829 494.402 122.121 495.53 121.957 497.928C121.643 502.464 121.165 506.984 120.789 511.513C120.703 512.508 120.312 514.051 120.789 514.435C124.338 517.303 122.787 520.797 121.659 523.743C118.698 531.476 116.778 539.342 116.543 547.639Z" fill="#1F1F22"/>
</svg>
