<svg width="412" height="631" viewBox="0 0 412 631" fill="none" xmlns="http://www.w3.org/2000/svg">
<path d="M379.606 631H65.9917C66.2706 629.553 66.6618 628.118 66.8033 626.658C66.9989 624.612 67.952 622.541 66.6951 620.491C66.4911 620.158 66.5577 619.601 66.6285 619.172C67.0697 616.586 67.4692 613.991 68.0311 611.433C68.8968 607.486 69.9082 603.569 70.8114 599.63C71.8145 595.255 72.9924 590.897 73.6541 586.468C74.1994 582.816 75.1109 579.323 76.3886 575.888C76.5218 575.534 76.63 575.156 76.6675 574.781C77.092 570.182 77.5041 565.578 77.912 560.974C78.0243 559.714 78.1034 558.454 78.2075 557.027C77.0671 556.849 76.0723 556.666 75.0651 556.533C73.5376 556.333 71.9768 556.295 70.4826 555.967C66.2206 555.023 61.9295 554.158 57.7549 552.91C50.8083 550.831 43.6911 549.953 36.5198 549.446C31.5336 549.092 26.5224 549.059 21.5238 548.884C19.2096 548.805 18.86 548.552 18.552 546.298C18.2981 544.447 17.6738 542.937 16.0631 541.765C14.4399 540.584 13.3411 538.87 12.6044 536.978C10.848 532.474 9.64511 527.808 8.92506 523.042C8.08015 517.461 7.46 511.842 6.65672 506.253C5.70359 499.615 4.20107 493.119 1.10863 487.106C-0.110869 484.735 -0.189949 482.31 0.230424 479.794C0.721552 476.883 1.15025 473.96 1.8037 471.086C3.01071 465.771 4.35923 460.489 5.65365 455.191C6.69001 450.953 7.78465 446.728 8.77523 442.482C9.92397 437.545 10.8979 432.567 12.1216 427.647C13.0206 424.037 14.3816 420.544 15.1974 416.922C16.3378 411.865 18.4313 407.348 21.7277 403.364C22.0898 402.927 22.402 402.407 22.5726 401.871C23.5757 398.689 24.5371 395.495 25.5027 392.302C26.6931 388.376 27.7045 384.387 29.669 380.732C30.5389 379.114 30.876 377.359 30.5805 375.517C30.3557 374.123 30.2017 372.714 29.9021 371.337C29.2819 368.484 29.7356 365.856 31.3671 363.431C32.5159 361.726 33.5814 359.963 34.8258 358.332C36.2285 356.494 37.9349 355.076 40.5238 355.579C40.6861 355.613 40.8775 355.484 41.1522 355.4C41.5934 353.379 41.9056 351.441 40.2824 349.657C39.4499 348.742 38.9838 347.532 39.3792 346.255C39.7746 344.983 40.1367 343.635 40.8484 342.537C41.9639 340.82 42.4175 339.031 42.1636 337.06C41.8473 334.602 42.3301 332.34 43.5579 330.211C45.743 326.43 46.8876 322.317 47.5369 318.025C48.0655 314.528 48.798 311.072 50.7001 308.003C51.9487 305.986 53.1849 303.956 54.496 301.977C55.8986 299.86 56.5645 297.572 56.3148 295.048C55.8861 290.731 56.6811 286.639 58.4375 282.696C58.8537 281.761 59.2907 280.812 59.5612 279.831C61.1012 274.296 63.8357 269.251 66.1041 264.019C66.9531 262.06 67.9312 260.027 69.7667 258.679C70.4327 258.189 71.3067 257.914 71.8353 257.319C73.5667 255.381 75.7602 254.99 78.2033 254.928C80.4259 254.874 82.4445 254.15 83.9845 252.375C84.4298 251.859 85.0833 251.489 85.6951 251.156C88.4671 249.671 91.3264 248.336 94.0235 246.727C96.8038 245.068 100.096 244.797 102.86 243.051C104.945 241.732 107.351 240.921 109.623 239.906C111.712 238.971 113.773 237.931 115.924 237.157C121.102 235.299 126.33 233.585 131.524 231.776C133.393 231.127 135.228 230.387 137.068 229.659C138.841 228.96 140.631 228.291 142.362 227.497C144.914 226.324 147.469 225.13 149.937 223.791C152.293 222.51 154.528 221.009 156.846 219.653C158.278 218.817 159.747 218.044 161.229 217.291C163.452 216.16 165.753 215.178 167.913 213.943C170.469 212.483 172.791 210.566 175.443 209.335C177.399 208.424 178.352 207.015 179.168 205.268C179.492 204.569 179.854 203.891 180.212 203.209C180.803 202.082 181.349 200.897 182.968 200.972C182.968 199.799 182.914 198.776 182.976 197.757C183.242 193.54 183.08 189.269 184.483 185.181C184.682 184.599 184.803 183.904 184.682 183.318C183.738 178.672 182.772 174.031 181.723 169.411C180.941 165.98 180.371 162.49 178.968 159.217C178.389 157.874 177.827 156.506 177.474 155.092C176.491 151.174 175.746 147.19 174.677 143.298C173.815 140.162 172.646 137.113 171.539 134.048C171.368 133.578 170.769 132.913 170.419 132.946C169.903 132.988 169.358 133.508 168.962 133.944C168.105 134.884 167.406 135.978 166.502 136.864C166.036 137.321 165.266 137.679 164.621 137.708C161.308 137.841 159.223 136.007 158.678 132.713C158.532 131.836 158.324 130.942 157.966 130.135C157.258 128.559 156.38 127.057 155.656 125.485C154.133 122.187 153.637 118.603 152.776 115.118C151.885 111.508 151.028 107.873 149.787 104.379C149.138 102.55 148.863 100.849 149.017 98.9564C149.217 96.536 149.196 94.0989 149.35 91.6743C149.413 90.6596 149.533 89.6033 149.879 88.6592C150.487 87.0082 151.664 85.6732 153.487 85.6025C155.265 85.5359 156.555 84.9038 157.471 83.5356C158.041 83.7435 158.494 83.9057 159.023 84.097C159.631 82.4085 160.422 80.8947 159.435 79.2104C159.88 77.1851 159.198 75.2055 159.215 73.2051C159.227 71.7412 159.718 70.2732 159.672 68.8176C159.589 66.21 160.763 63.852 160.913 61.3068C160.925 61.0573 161.071 60.8202 161.146 60.5748C161.695 58.7699 161.774 56.9317 161.537 55.0727C161.87 54.8066 162.199 54.5487 162.503 54.3034C162.253 53.8168 162.07 53.455 161.691 52.7189C162.424 53.2387 162.786 53.4924 163.518 54.0081C163.223 53.2345 163.139 52.8603 162.952 52.5525C162.161 51.2716 162.245 50.1487 163.452 49.1672C163.876 48.8221 163.839 48.3979 163.839 47.8364C163.839 46.7635 163.31 45.5325 164.517 44.605C165.799 43.6236 166.34 42.3427 165.77 40.65C165.549 39.9888 165.72 39.1071 166.885 39.315C166.082 37.6806 166.636 36.2583 167.622 35.0024C168.026 34.4867 168.783 34.2621 169.299 33.813C169.757 33.4137 170.098 32.8772 170.502 32.4114C170.61 32.2867 170.756 32.1952 170.881 32.0912C170.685 31.6296 170.515 31.2262 170.323 30.7729C172.063 28.7309 173.782 26.7139 175.509 24.6927C176.079 24.726 176.7 24.7634 177.474 24.8092C177.382 23.2662 178.194 22.4802 179.392 22.002C179.8 21.8897 179.796 22.8628 180.57 22.2473C181.694 21.3532 182.897 20.4923 184.454 20.1887C185.573 19.9683 185.798 19.2114 185.661 18.0137C186.127 17.7392 186.93 17.8931 186.976 16.9948C186.988 16.7161 187.246 16.3959 187.479 16.1963C189.203 14.7116 190.917 13.2186 192.703 11.8171C193.119 11.4927 193.793 11.4968 194.588 11.2889C195.004 10.794 195.167 9.47982 196.603 9.86659C196.636 9.74598 196.628 9.58795 196.707 9.50477C197.389 8.78114 198.03 7.55014 198.788 7.47528C200.036 7.34636 201.052 6.66431 201.714 6.05297C203.308 4.58491 205.331 4.36865 207.129 3.54521C207.686 3.28737 208.34 3.24578 209.047 3.07943C209.576 3.27905 208.835 4.64729 210.159 4.41856C210.067 3.95693 209.98 3.51194 209.896 3.0919C210.654 2.78415 211.282 2.53046 212.123 2.18944C212.381 2.64691 212.66 3.14181 212.96 3.67829C214.362 2.67602 215.378 1.51572 216.61 1.19133C217.942 0.837833 219.482 1.25787 220.993 1.34521C221.43 0.98339 221.238 -0.139485 222.216 0.0143905C223.261 0.176584 224.489 -0.322472 225.063 0.60494C226.075 0.509288 226.87 0.409476 227.665 0.367888C228.297 0.334618 228.93 0.380365 229.567 0.388682C231.123 0.413635 232.676 0.442747 234.232 0.455223C236.992 0.480176 239.597 1.8609 242.423 1.37016C242.785 1.30778 243.235 1.36184 243.555 1.53235C245.162 2.38075 247.039 2.48472 248.604 3.45788C248.979 3.69077 249.553 3.57432 250.007 3.71156C250.723 3.92782 251.451 4.1524 252.109 4.49342C252.991 4.95089 253.782 5.5955 254.677 6.02801C255.234 6.29834 255.684 6.48964 255.759 7.2008C255.796 7.53766 256.071 7.84957 256.346 8.37358C256.674 7.84957 256.891 7.50023 257.132 7.11762C257.382 7.37963 257.628 7.63331 257.898 7.92027C259.08 7.22991 260.071 7.20911 260.907 8.44012C261.244 8.93917 261.852 9.25109 262.335 9.64617C263.425 9.01403 263.484 9.03483 265.123 10.5694C264.766 10.7025 264.453 10.819 264.137 10.9354C264.932 11.9834 266.052 12.0208 267.292 11.9335C267.042 12.4326 266.88 12.7528 266.593 13.3226C267.821 13.78 268.965 14.2084 270.314 14.7157C270.409 15.2439 270.805 15.797 271.737 15.8594C272.153 15.8885 272.674 16.0965 272.936 16.4042C274.288 17.9804 275.928 19.3112 276.869 21.2534C277.219 21.9729 277.818 22.6341 278.871 22.7838C280.086 22.9585 281.31 23.3577 282.163 24.3018C281.943 24.6761 281.772 24.9672 281.53 25.3748C282.675 25.7615 283.741 26.1067 283.399 27.3751C283.89 27.4666 284.377 27.4126 284.544 27.6163C285.131 28.34 285.568 29.1842 286.138 29.9245C287.066 31.1305 287.923 32.4322 289.051 33.422C289.821 34.0958 290.242 34.8776 290.25 35.7052C290.263 37.298 290.987 38.4958 291.853 39.7018C292.061 39.9929 292.185 40.3672 292.26 40.7207C292.41 41.3944 292.635 41.96 293.035 42.5797C293.813 43.7858 294.242 45.2289 294.729 46.6054C294.853 46.9589 294.624 47.4247 294.612 47.8447C294.575 49.0342 293.888 50.3275 295.461 51.2217C295.861 51.4504 295.981 52.4818 295.936 53.1223C295.819 54.7484 295.39 56.3578 295.374 57.9797C295.365 58.7616 294.97 59.0153 294.525 59.3605C295.382 60.0966 296.185 60.7869 297.034 61.5147C296.805 62.0595 296.552 62.5128 296.439 62.9953C296.343 63.4028 296.343 63.8603 296.418 64.2762C296.743 66.0894 297.113 67.8902 297.451 69.6992C297.467 69.7824 297.317 69.8989 297.205 70.0527C297.101 69.8864 297.009 69.745 296.918 69.6036C296.884 69.5537 296.855 69.5038 296.822 69.458C296.772 69.4955 296.722 69.5329 296.622 69.6077C296.381 70.6225 297.85 71.8244 296.406 72.7892C296.389 72.8017 296.464 73.0512 296.543 73.0887C297.525 73.5544 297.143 74.2906 296.747 74.8062C296.027 75.7545 295.848 76.7526 296.031 77.5136C295.424 78.3412 295.012 78.99 294.512 79.5598C293.792 80.379 293.979 81.0777 294.695 81.7306C295.524 82.4876 295.956 83.3734 296.094 84.5129C296.194 85.3363 296.664 86.1099 297.022 87.0456C297.933 85.8936 296.51 84.6293 297.688 83.6437C297.933 84.8414 298.104 85.877 298.37 86.8917C298.633 87.8857 299.507 88.3182 300.414 87.8275C300.947 87.5363 301.396 87.0165 301.762 86.5174C302.541 85.4528 302.961 85.2615 304.139 85.7065C305.238 86.1223 305.85 86.8584 306.129 88.0728C306.899 91.4373 306.899 94.9057 307.914 98.2619C308.647 100.686 308.293 103.302 307.41 105.814C306.22 109.2 305.242 112.664 304.206 116.103C303.91 117.085 303.681 118.091 303.515 119.106C302.982 122.358 301.571 125.186 299.498 127.71C298.762 128.604 297.883 129.519 298.104 130.767C298.416 132.514 297.871 134.019 297.222 135.57C296.755 136.681 296.015 137.259 294.853 137.575C293.118 138.049 291.744 137.213 290.462 136.631C289.626 137.026 288.943 137.346 288.102 137.746C287.853 138.818 287.615 140.008 287.303 141.172C285.809 146.745 284.361 152.335 282.775 157.882C281.231 163.272 278.979 168.375 275.962 173.112C274.63 175.208 274.684 177.537 276.232 179.616C278.492 179.591 279.225 179.783 279.691 181.28C280.407 183.576 281.797 185.493 282.833 187.605C283.47 188.907 284.319 190.155 285.285 191.236C286.604 192.712 288.157 193.981 289.559 195.391C292.136 197.982 294.67 200.614 297.226 203.23C298.233 204.261 299.386 205.035 300.83 205.33C302.279 205.625 303.715 205.971 305.163 206.258C309.8 207.181 314.249 208.678 318.294 211.111C321.749 213.19 325.453 214.55 329.282 215.69C331.001 216.201 332.733 216.742 334.348 217.503C341.619 220.922 348.957 224.149 356.681 226.44C358.13 226.869 359.545 227.106 361.023 227.014C364.872 226.777 368.552 227.343 372.098 228.956C377.317 231.331 382.337 234.043 386.969 237.424C389.87 239.54 392.788 241.649 395.218 244.344C395.701 244.876 396.505 245.122 397.166 245.492C398.223 246.086 399.464 246.49 400.296 247.309C401.928 248.919 403.372 250.728 404.829 252.508C407.422 255.672 409.424 259.149 410.393 263.171C411.317 267.005 411.68 270.869 411.592 274.82C411.526 277.88 411.85 280.95 412 284.011V284.78C411.859 285.911 411.646 287.038 411.588 288.173C411.413 291.596 410.514 294.703 408.237 297.402C406.893 298.995 405.416 300.646 405.703 303.037C405.74 303.336 405.59 303.665 405.49 303.973C405.074 305.258 405.282 306.518 405.678 307.753C406.206 309.396 406.648 311.088 407.388 312.636C408.641 315.268 408.129 318.154 408.779 320.866C408.924 321.477 408.475 322.222 408.337 322.912C408.121 323.977 407.929 325.05 407.734 326.118C407.526 327.241 407.313 328.36 407.126 329.487C406.91 330.805 406.652 332.124 406.531 333.455C406.385 335.039 406.327 336.632 406.315 338.22C406.31 338.973 406.41 339.759 406.623 340.483C407.459 343.377 408.562 346.164 409.923 348.863C411.359 351.716 411.039 353.691 408.691 355.542C406.41 357.338 405.736 359.647 405.886 362.342C406.073 365.66 406.29 368.983 406.568 372.298C406.714 374.015 407.026 375.716 407.239 377.425C407.301 377.929 407.38 378.469 407.272 378.952C406.543 382.221 406.885 385.548 406.843 388.833C406.806 391.674 407.363 394.526 407.755 397.359C407.9 398.402 408.004 399.371 407.459 400.332C407.313 400.59 407.309 400.956 407.318 401.268C407.355 403.06 407.455 404.849 407.459 406.641C407.463 408.305 407.476 409.981 407.309 411.632C407.006 414.626 406.56 417.608 406.194 420.594C406.057 421.721 406.385 423.168 405.803 423.929C404.479 425.655 404.196 427.685 403.547 429.593C402.111 433.848 400.725 438.131 401.062 442.731C401.079 442.985 401.025 443.243 400.995 443.496C400.363 449.181 399.476 454.817 397.774 460.29C396.001 465.983 394.265 471.689 392.276 477.307C391.273 480.14 389.841 482.809 389.133 485.771C388.855 486.939 388.243 488.037 387.706 489.127C386.74 491.081 385.641 492.974 384.738 494.957C383.947 496.692 383.29 498.496 382.674 500.301C381.929 502.481 381.458 504.764 380.568 506.872C378.578 511.597 376.576 516.334 372.789 520.031C371.936 520.862 371.02 521.952 370.808 523.054C370.375 525.317 368.964 526.947 367.873 528.802C367.332 529.717 366.8 530.665 366.454 531.663C365.796 533.555 366.267 535.472 366.591 537.365C366.949 539.448 367.674 541.528 367.657 543.607C367.615 549.117 367.291 554.624 367.016 560.13C366.904 562.426 366.521 564.713 366.475 567.004C366.442 568.593 366.77 570.19 366.941 571.783C367.545 577.401 367.94 583.028 367.678 588.684C367.636 589.562 367.757 590.493 368.027 591.329C368.76 593.571 369.139 595.941 370.371 598.012C370.887 598.882 371.432 599.742 371.832 600.666C374.35 606.467 375.503 612.681 377.155 618.736C378.25 622.745 378.803 626.899 379.598 630.992L379.606 631ZM160.796 66.5344C160.921 66.5593 161.05 66.5843 161.175 66.6134C161.204 66.2516 161.233 65.8898 161.262 65.528C161.146 65.5155 161.033 65.5072 160.917 65.4947C160.875 65.8399 160.834 66.1892 160.796 66.5344Z" fill="#1F1F22"/>
</svg>
