<svg width="598" height="513" viewBox="0 0 598 513" fill="none" xmlns="http://www.w3.org/2000/svg">
<path d="M596.46 513H361.138C360.871 510.931 360.345 508.856 360.391 506.794C360.519 500.972 361.006 495.156 361.116 489.333C361.234 483.344 361.049 477.351 361.045 471.358C361.045 466.472 361.159 461.587 361.141 456.701C361.12 450.527 361.013 444.349 360.942 438.176C360.9 434.468 360.953 430.76 360.793 427.055C360.64 423.507 360.256 419.966 359.997 416.421C359.908 415.208 359.997 413.97 359.795 412.774C359.29 409.762 358.697 406.76 358.057 403.772C357.947 403.265 357.474 402.811 357.105 402.388C356.874 402.122 356.351 402.019 356.252 401.739C355.431 399.422 354.522 397.109 355.126 394.557C355.314 393.77 355.765 392.748 355.452 392.198C354.649 390.793 355.026 389.434 355.083 388.036C355.104 387.539 355.115 387.025 355.015 386.542C354.774 385.368 354.344 384.218 354.205 383.033C353.797 379.598 353.662 376.121 353.082 372.718C352.67 370.288 352.457 367.715 350.737 365.657C349.902 364.657 349.099 363.582 348.545 362.414C347.991 361.247 347.735 359.931 347.397 358.664C346.374 354.821 345.386 350.975 344.363 347.132C343.954 345.589 343.368 344.077 343.091 342.512C342.551 339.461 342.224 336.37 341.709 333.312C341.201 330.3 339.84 329.522 336.922 329.441C335.725 329.409 334.503 329.902 333.32 329.81C331.671 329.682 330.054 329.136 328.405 328.933C326.156 328.657 323.889 328.472 321.622 328.366C320.535 328.316 319.437 328.557 318.343 328.632C317.231 328.706 315.98 329.075 315.532 327.486C315.504 327.386 315.33 327.284 315.209 327.262C313.386 326.95 311.545 326.326 309.74 326.421C306.191 326.606 302.836 327.603 300.196 330.232C299.507 330.917 298.423 331.392 298.086 332.201C297.436 333.752 296.259 334.149 294.856 334.327C291.85 334.703 289.178 335.913 287.121 338.052C285.273 339.972 283.137 341.537 280.913 342.779C278.326 344.226 275.324 344.943 272.481 345.922C270.651 346.554 268.598 346.674 267.351 348.512C267.116 348.86 266.476 348.974 265.997 349.109C264.895 349.421 263.772 349.655 262.671 349.974C262.301 350.081 261.825 350.258 261.662 350.549C261.004 351.72 260.027 351.809 258.947 351.422C257.878 351.039 257.135 351.241 256.474 352.203C256.236 352.547 255.607 352.692 255.127 352.784C254.221 352.958 253.29 353.008 252.377 353.146C251.493 353.281 250.586 353.689 249.744 353.576C247.683 353.292 245.875 353.817 244.123 354.789C243.576 355.091 243.057 355.478 242.478 355.68C240.367 356.404 238.228 356.386 235.986 356.244C232.064 355.999 228.109 356.223 224.168 356.269C223.909 356.269 223.639 356.404 223.39 356.514C221.312 357.401 220.199 357.078 218.767 355.24C218.48 354.867 218.067 354.413 217.659 354.346C215.769 354.041 213.86 353.831 211.952 353.643C208.14 353.271 204.302 353.072 200.511 352.54C197.768 352.153 195.107 351.177 192.36 350.783C190.246 350.478 188.061 350.719 185.911 350.613C185.175 350.578 183.992 350.428 183.804 349.992C182.887 347.877 180.652 347.388 179.149 346.039C178.019 345.028 176.122 344.876 174.569 344.336C172.529 343.63 170.167 343.648 168.621 341.828C167.637 340.667 166.688 339.543 165.075 339.216C164.769 339.152 164.563 338.617 164.307 338.304C162.715 336.37 161.159 334.412 159.514 332.524C158.768 331.666 157.865 330.942 157.016 330.179C155.382 328.717 153.907 326.978 152.049 325.893C149.853 324.608 148.542 322.98 147.991 320.567C147.888 320.109 147.419 319.46 147.032 319.389C144.765 318.977 144.033 316.178 141.648 316.018C141.592 316.014 141.563 315.844 141.492 315.805C140.849 315.454 140.22 314.872 139.552 314.815C137.711 314.666 135.853 314.762 134.005 314.716C132.637 314.68 131.145 314.9 129.933 314.428C127.386 313.431 124.675 312.654 122.72 310.465C121.853 309.496 120.738 308.716 119.633 307.999C118.304 307.14 116.854 306.473 115.493 305.661C115.095 305.423 114.815 304.976 114.502 304.603C113.361 303.252 112.278 301.85 111.084 300.548C109.705 299.047 108.177 297.677 106.823 296.155C106.209 295.463 105.843 294.548 105.384 293.718C105.072 293.153 104.638 292.593 104.539 291.986C104.194 289.868 103 288.271 100.897 288.062C97.3647 287.714 93.8257 286.862 90.2512 287.81C89.4162 288.03 88.5527 288.197 87.6964 288.275C84.6264 288.548 81.5529 288.778 78.4794 289.013C76.1698 289.19 73.2775 287.668 72.7516 285.794C72.0765 283.382 71.5222 280.923 71.078 278.457C70.275 274.007 69.6567 269.526 68.8466 265.08C67.9015 259.878 66.7786 254.709 65.8335 249.507C64.6893 243.216 63.5346 236.925 62.6036 230.602C61.9889 226.422 60.3296 222.498 60.0915 218.208C59.9138 215.008 58.9474 211.85 58.3255 208.674C57.2631 203.253 56.1972 197.831 55.1241 192.413C53.9622 186.555 52.7932 180.7 51.6242 174.842C51.0095 171.752 50.6151 170.229 46.3974 170.148C43.6721 170.095 41.0498 170.52 38.3813 170.662C35.9936 170.79 33.5952 171.557 31.2429 171.39C27.5618 171.134 23.8096 171.241 20.2813 169.545C17.7691 168.338 15.4453 167.04 13.5906 164.939C12.4784 163.68 11.2383 162.533 10.1084 161.288C8.68002 159.713 7.14503 158.201 5.95826 156.455C4.8461 154.82 3.92582 152.982 3.2898 151.108C2.16343 147.791 1.07259 144.423 0.429457 140.989C-0.0715458 138.321 -0.0466733 135.514 0.0705828 132.782C0.194945 129.844 0.305095 126.803 1.12589 124.014C2.86341 118.106 6.02577 112.958 10.4957 108.604C14.0738 105.12 18.2311 102.512 22.8218 100.82C26.2294 99.5635 29.9602 99.3896 33.6733 99.8474C39.1986 100.529 44.738 101.064 50.2775 101.618C53.3297 101.923 56.3961 102.125 59.4519 102.384C65.2046 102.874 70.9501 103.431 76.7063 103.843C80.9133 104.144 85.131 104.35 89.3451 104.414C90.6562 104.435 92.0669 104.041 93.2679 103.484C94.7815 102.782 96.0927 101.65 97.5601 100.823C98.5764 100.252 99.6956 99.8438 100.79 99.4287C102.361 98.8361 104.315 98.6977 105.452 97.6546C107.307 95.9479 109.389 94.9508 111.631 94.007C113.571 93.1909 115.543 92.9213 117.551 93.1732C125.503 94.1596 133.455 95.1673 141.386 96.3062C147.405 97.172 152.948 99.3364 157.883 102.959C159.432 104.098 161.141 105.053 162.548 106.341C165.508 109.055 168.33 111.922 171.19 114.743C174.093 117.606 176.996 120.477 179.867 123.372C182.116 125.639 184.227 128.056 186.582 130.209C188.32 131.799 190.37 133.048 192.246 134.492C194.158 135.968 196.233 137.309 197.864 139.059C200.003 141.351 201.748 144.005 203.727 146.453C204.231 147.081 204.963 147.528 205.596 148.053C207.028 149.249 208.46 150.441 209.895 151.633C210.13 151.829 210.343 152.091 210.613 152.183C212.51 152.811 214.411 153.436 216.33 153.989C217.335 154.28 218.384 154.557 219.418 154.582C220.047 154.596 220.85 154.273 221.287 153.823C221.926 153.17 222.459 152.584 223.468 152.684C223.749 152.712 224.115 152.549 224.339 152.354C225.561 151.271 226.723 150.122 227.956 149.054C229.9 147.365 231.953 145.758 234.7 145.885C239.266 146.098 243.381 147.581 246.799 150.711C248.55 152.315 249.805 154.231 250.356 156.587C250.54 157.374 250.729 158.304 251.254 158.843C253.251 160.901 254.587 163.303 255.461 165.993C255.838 167.153 256.638 167.813 257.728 168.381C261.363 170.272 264.753 172.515 267.009 176.077C267.493 176.843 267.734 177.766 268.249 178.504C270.769 182.105 272.627 185.959 273.224 190.369C273.377 191.49 273.704 192.622 274.144 193.665C275.093 195.911 276.159 198.111 277.196 200.318C277.545 201.06 278.117 201.73 278.323 202.504C279.208 205.8 280.746 208.781 282.473 211.69C283.134 212.804 283.937 213.365 285.276 213.099C286.033 212.95 286.822 212.921 287.597 212.911C289.576 212.886 290.94 212.191 291.619 210.133C292.767 206.648 295.229 204.111 298.32 202.291C299.752 201.447 301.305 200.904 301.959 199.193C302.026 199.02 302.318 198.927 302.506 198.8C303.59 198.054 304.691 197.334 305.75 196.557C308.333 194.659 310.863 192.675 314.175 192.168C315.127 192.023 315.557 191.419 315.699 190.486C315.777 189.968 315.937 189.397 316.25 188.996C317.259 187.697 318.343 186.452 319.419 185.206C321.018 183.358 322.756 181.612 324.22 179.661C326.021 177.251 327.908 175.041 330.729 173.749C331.284 173.494 331.902 172.674 331.923 172.099C331.966 170.755 331.379 169.559 330.122 168.711C329.887 169.08 329.702 169.371 329.393 169.86C329.208 169.13 329.027 168.654 328.97 168.164C328.647 165.404 327.681 162.881 326.444 160.394C324.255 155.976 322.283 151.449 320.183 146.985C318.183 142.731 315.852 138.608 314.178 134.233C312.569 130.021 310.614 126.033 308.39 122.144C308.124 121.679 307.736 121.278 307.388 120.86C306.066 119.274 304.638 117.766 303.455 116.084C302.744 115.073 302.456 113.774 301.92 112.635C301.358 111.45 300.609 110.343 300.15 109.126C299.496 107.391 299.045 105.581 298.484 103.811C297.759 101.522 296.729 99.2867 296.334 96.9414C295.655 92.8929 295.279 88.7876 294.934 84.693C294.582 80.4742 294.341 76.2412 294.209 72.0082C294.099 68.4635 294.092 64.9011 294.273 61.36C294.408 58.7095 294.44 56.02 295.293 53.4369C295.972 51.3754 296.494 49.2606 297.155 47.192C297.5 46.1134 297.979 45.0773 298.416 44.0306C299.063 42.4729 299.592 40.8443 300.413 39.3824C301.966 36.6148 303.618 33.9005 305.363 31.2464C306.653 29.2843 307.768 27.2086 309.847 25.7928C311.435 24.7106 312.839 23.2559 314.036 21.7372C316.14 19.0654 318.876 17.2275 321.644 15.3931C323.118 14.4173 324.561 13.3919 326.085 12.4977C328.444 11.1139 330.413 9.12338 333.007 8.0944C333.966 7.71474 334.847 7.12929 335.793 6.70706C337.374 6.00096 338.951 5.28068 340.579 4.70232C342.121 4.15235 343.762 3.88269 345.29 3.30078C348.478 2.09084 351.686 1.05832 355.14 0.980257C355.755 0.966065 356.355 0.671563 356.973 0.547376C357.457 0.448027 357.947 0.377063 358.437 0.359322C359.482 0.32384 360.53 0.341581 361.575 0.316743C365.263 0.228038 368.994 -0.648368 372.59 0.966064C372.849 1.08315 373.265 0.806395 373.606 0.81704C373.986 0.827684 374.54 0.827685 374.711 1.05832C375.592 2.25051 375.667 2.28245 376.662 1.27476C378.509 1.6828 380.272 2.0731 382.126 2.48115C382.023 2.176 381.931 1.91698 381.743 1.36701C382.659 1.61539 383.367 1.74312 384.02 1.99859C384.823 2.31438 385.559 2.81823 386.373 3.10563C390.203 4.46104 393.987 6.00806 397.913 6.99091C399.811 7.46637 400.681 9.06306 402.373 9.71593C404.089 10.3794 405.851 11.3836 406.867 13.1541C406.889 13.1896 406.935 13.218 406.978 13.2357C409.195 14.1122 410.215 16.3014 411.913 17.7526C412.499 18.2565 412.748 19.1471 413.171 19.8496C413.285 20.0341 413.445 20.2505 413.633 20.3251C414.706 20.7366 415.747 21.1376 415.633 22.603C415.626 22.713 415.999 22.8301 416.152 22.9862C416.358 23.192 416.578 23.4155 416.703 23.671C417.182 24.6645 417.58 25.697 418.099 26.6692C418.607 27.6202 419.474 28.4504 419.734 29.451C420.103 30.8668 421.166 31.8851 421.489 33.3753C421.713 34.4043 421.926 35.962 423.401 36.4623C423.507 36.4978 423.571 36.7781 423.589 36.9519C423.895 39.8331 425.078 42.4623 425.938 45.1838C426.083 45.6486 426.225 46.1205 426.392 46.5782C426.567 47.0608 426.726 47.5575 426.979 48.001C427.21 48.4091 427.682 48.7071 427.831 49.1329C428.258 50.3358 428.99 51.6344 428.83 52.7911C428.642 54.1607 430.45 54.8171 429.622 56.4032C429.334 56.9496 430.567 58.2837 431.093 59.263C431.289 59.632 431.523 60.0081 431.605 60.4091C431.861 61.6864 432.028 62.9815 432.273 64.2589C432.383 64.8337 432.802 65.4227 432.724 65.9514C432.365 68.3855 432.817 70.6315 433.915 72.8101C434.313 73.6013 434.366 74.5913 434.842 75.3151C435.432 76.2128 436.292 76.9366 437.063 77.7101C437.205 77.8521 437.482 77.8556 437.695 77.9266C438.338 78.1324 438.974 78.3701 439.628 78.5333C440.008 78.6291 440.556 78.7888 440.79 78.6114C442.236 77.4972 442.83 78.7781 443.096 79.6297C443.924 82.2873 445.001 84.9981 445.097 87.7196C445.274 92.7332 445.008 97.7823 444.578 102.789C444.095 108.427 443.245 114.033 442.513 119.646C442.389 120.608 442.567 121.027 443.629 121.183C445.161 121.406 446.71 121.743 448.159 122.283C450.515 123.159 452.491 124.61 453.873 126.785C455.468 129.294 457.05 131.813 458.73 134.265C460.947 137.501 463.25 140.684 465.538 143.87C465.933 144.416 466.405 144.927 466.92 145.36C468.356 146.563 469.816 147.737 471.305 148.869C471.788 149.238 472.382 149.661 472.947 149.696C474.901 149.813 476.862 149.771 478.82 149.792C479.932 149.802 480.988 150.271 481.19 151.314C481.528 153.049 482.64 153.294 484.068 153.514C487.408 154.035 490.72 154.752 494.063 155.27C498.54 155.969 502.708 157.314 506.08 160.507C507.743 162.083 507.672 161.991 509.584 160.713C512.174 158.989 514.843 157.25 518.208 157.956C520.176 158.368 522.144 158.861 524.049 159.5C525.328 159.929 526.618 160.525 527.68 161.334C529.091 162.409 530.58 163.176 532.314 163.115C535.515 163.005 538.265 164.283 541.008 165.635C543.251 166.742 545.454 167.934 547.71 169.012C550.432 170.315 553.242 171.457 555.232 173.884C555.427 174.125 555.733 174.278 555.992 174.462C557.289 175.392 558.625 176.276 559.88 177.258C562.203 179.079 564.481 180.956 566.773 182.819C567.054 183.046 567.299 183.322 567.547 183.588C570.674 186.924 573.638 190.429 576.981 193.534C579.092 195.496 579.728 197.607 579.373 200.251C579.294 200.84 579.159 201.422 579.014 201.997C578.452 204.228 578.57 206.297 579.476 208.529C580.655 211.428 581.327 214.539 582.116 217.587C582.524 219.17 582.524 220.877 583.05 222.409C583.786 224.56 584.891 226.582 585.743 228.697C587.79 233.781 589.041 239.011 588.895 244.564C588.742 250.497 587.609 256.178 585.353 261.663C584.677 263.302 583.892 265.002 583.725 266.73C583.189 272.318 581.973 277.719 580.009 282.967C578.68 286.511 577.18 289.999 576.072 293.608C574.412 298.99 573.012 304.454 572.177 310.039C572.017 311.118 571.495 311.59 570.454 311.82C569.857 311.952 569.178 312.36 568.823 312.849C566.922 315.472 565.092 318.143 563.291 320.833C562.879 321.447 562.726 322.227 562.374 322.884C562.019 323.547 561.699 324.505 561.13 324.725C558.97 325.563 558.27 327.61 556.799 329.129C557.357 329.302 557.698 329.409 558.039 329.515C555.523 329.923 553.523 332.088 553.896 334.682C554.486 338.794 555.015 342.913 555.63 347.019C555.726 347.668 556.053 348.342 556.444 348.878C557.982 350.971 559.61 353.001 561.159 355.087C561.614 355.698 561.962 356.4 562.274 357.099C563.287 359.363 563.955 361.712 565.614 363.759C567.082 365.569 568.105 367.939 568.663 370.224C569.168 372.282 570.156 373.949 571.15 375.709C572.128 377.441 572.987 379.243 573.776 381.067C574.295 382.27 574.686 383.544 574.967 384.825C575.137 385.616 575.265 386.62 574.92 387.266C574.43 388.181 574.451 388.774 574.991 389.611C575.901 391.023 575.734 391.623 574.426 392.709C572.06 394.675 571.616 398.063 573.446 400.515C574.377 401.76 575.4 402.938 576.352 404.166C577.738 405.951 578.157 407.838 577.273 410.052C576.814 411.202 576.455 412.6 576.676 413.767C577.23 416.727 575.912 418.469 573.52 419.778C572.124 420.545 571.769 421.723 572.572 423.11C573.307 424.377 574.217 425.54 574.906 426.828C575.45 427.85 575.834 428.971 576.178 430.086C576.526 431.207 576.693 432.385 577.035 433.51C577.408 434.734 577.88 435.926 578.324 437.129C579.49 440.297 580.254 443.675 582.45 446.343C585.431 449.97 587.602 453.887 587.762 458.702C587.769 458.922 587.875 459.138 587.929 459.358C588.309 460.983 588.693 462.605 589.055 464.23C589.243 465.074 589.272 465.983 589.595 466.77C590.618 469.258 591.72 471.717 592.843 474.161C594.154 477.025 595.632 479.817 596.837 482.723C598.876 487.645 597.97 492.502 596.147 497.271C595.941 497.807 595.533 498.286 595.135 498.718C594.133 499.804 593.646 501.046 593.998 502.497C594.687 505.336 595.451 508.157 596.158 510.988C596.321 511.641 596.371 512.322 596.474 512.989L596.46 513ZM173.084 263.146C175.002 262.032 176.754 261.028 178.492 259.995C178.758 259.836 178.957 259.559 179.167 259.321C181.871 256.231 184.539 253.108 187.282 250.053C188.586 248.602 190.264 247.431 191.333 245.838C192.346 244.33 193.351 242.851 194.581 241.516C194.758 241.325 194.808 241.02 194.964 240.803C195.81 239.618 196.556 238.337 197.551 237.291C199.96 234.754 202.469 232.309 204.981 229.871C206.086 228.8 207.191 227.682 208.467 226.841C211.849 224.606 215.292 222.452 218.778 220.383C221.077 219.021 221.82 217.084 221.699 214.525C221.564 211.719 221.646 208.905 221.624 206.095C221.61 204.303 221.176 203.888 219.386 203.884C219.066 203.884 218.746 203.852 218.426 203.835C213.907 203.59 209.586 204.211 205.603 206.567C205.002 206.921 204.121 206.996 203.403 206.918C202.199 206.783 201.03 206.325 199.825 206.169C198.34 205.974 196.798 205.697 195.345 205.903C191.955 206.389 188.608 207.177 185.232 207.791C180.016 208.738 174.782 209.59 169.577 210.594C167.018 211.087 166.34 212.006 166.581 214.635C166.837 217.449 167.36 220.234 167.701 223.041C167.964 225.212 167.967 227.423 168.365 229.563C169.093 233.462 170.099 237.308 170.863 241.201C171.805 246.001 172.593 250.83 173.496 255.638C173.905 257.82 174.235 259.967 173.212 262.082C173.07 262.376 173.126 262.77 173.087 263.153L173.084 263.146ZM152.376 275.114C152.329 274.923 152.287 274.731 152.241 274.54C151.697 274.586 151.15 274.603 150.61 274.678C148.073 275.029 145.571 275.867 142.96 274.855C142.434 274.65 141.41 275.008 140.973 275.455C140.288 276.158 140.572 277.052 141.261 277.765C142.128 278.659 143.112 278.336 144.068 278.031C146.193 277.353 148.311 276.651 150.425 275.93C151.089 275.703 151.725 275.391 152.372 275.118L152.376 275.114Z" fill="#1F1F22"/>
</svg>
