<svg width="514" height="750" viewBox="0 0 514 750" fill="none" xmlns="http://www.w3.org/2000/svg">
<path d="M0.00956574 680.145C0.00956574 650.19 0.00956574 620.24 0.00956574 590.285C4.75417 588.721 9.52269 587.224 14.2338 585.564C16.1278 584.895 18.0888 584.115 19.6672 582.924C21.2216 581.752 22.2356 579.892 23.6609 578.519C25.5883 576.659 26.478 574.444 27.0089 571.852C27.7646 568.164 28.9603 564.615 32.6909 562.654C37.5264 560.115 42.2136 557.264 47.1639 554.978C51.918 552.787 56.8635 550.941 61.8473 549.324C66.8215 547.717 71.126 545.508 74.2349 541.045C76.2198 538.2 78.9795 535.904 81.1557 533.173C83.265 530.533 85.379 527.811 86.9669 524.846C91.0563 517.217 94.3708 509.201 99.4645 502.079C101.182 499.678 102.009 496.44 102.588 493.456C104.113 485.569 106.328 477.95 110.853 471.263C114.004 466.605 117.563 462.214 121.088 457.823C121.887 456.829 123.197 456.049 124.426 455.633C129.056 454.069 130.046 452.428 129.104 447.674C128.009 442.159 127.124 436.549 130.429 431.479C132.892 427.706 135.561 424.009 138.564 420.661C140.597 418.398 141.855 416.189 141.267 413.194C139.755 405.532 142.85 400.137 149.259 396.144C153.2 393.685 155.95 390.581 155.419 385.248C155.123 382.259 155.63 378.973 156.629 376.122C158.413 371.038 160.886 366.203 163 361.229C166.009 354.15 169.988 347.937 176.689 343.656C182.05 340.232 187.24 336.573 193.529 334.999C196.064 334.363 198.81 334.153 201.096 333.014C205.859 330.652 210.523 328.021 214.966 325.104C221.232 320.99 227.382 316.633 234.514 314.223C241.989 311.692 248.757 307.986 255.204 303.566C258.457 301.337 260.815 298.458 262.039 294.661C262.967 291.781 264.048 288.955 264.99 286.085C265.832 283.517 267.625 282.019 270.179 281.513C274.757 280.599 278.444 278.518 279.841 273.817C280.214 272.564 279.903 270.761 279.224 269.608C277.014 265.863 274.508 262.29 272.069 258.684C271.461 257.78 270.844 256.709 269.955 256.197C260.504 250.778 252.822 243.283 246.016 234.999C238.546 225.897 233.433 215.346 229.592 204.221C226.851 196.272 224.245 188.275 221.576 180.302C218.309 170.56 215.875 160.692 215.707 150.294C215.65 146.698 215.483 142.451 210.944 140.767C210.905 140.753 210.91 140.624 210.886 140.533C213.144 138.562 214.158 135.989 214.177 133.062C214.229 126.471 213.957 119.919 212.412 113.442C211.058 107.765 211.221 101.983 211.441 96.1524C211.68 89.7003 211.647 83.2674 214.024 77.1597C215.559 73.209 216.989 69.1436 219.151 65.5373C221.337 61.8832 223.274 58.473 221.983 54.0488C221.844 53.5753 222.47 52.877 222.71 52.3461C222.317 51.6574 221.676 51.0069 221.595 50.2943C221.107 46.1571 220.342 42.1156 221.241 37.8206C222.36 32.4733 223.905 27.8865 228.726 24.4907C233.457 21.1618 238.177 18.1104 243.792 16.5751C244.409 16.4077 245.108 16.0681 245.486 15.585C249.455 10.5199 254.587 7.32021 260.996 6.97106C263.072 6.85627 265.569 8.09503 267.291 9.44858C269.472 11.1656 272.069 11.2087 273.681 8.79811C274.097 8.17634 274.742 7.54979 275.422 7.30108C277.277 6.62669 279.214 6.1771 281.108 5.59838C285.853 4.1396 290.559 2.54212 295.342 1.23162C297.542 0.628976 299.867 -1.15025 302.21 1.12639C302.45 1.36075 303.114 1.11683 303.569 1.18379C305.243 1.42772 306.984 1.49468 308.567 2.02079C311.183 2.89606 313.708 4.05829 316.253 5.13444C317.999 5.87578 319.802 6.53582 321.428 7.48283C324.355 9.19031 327.129 11.1561 330.047 12.8779C331.874 13.954 333.816 14.8532 335.767 15.6902C337.981 16.6372 340.287 17.3738 342.511 18.3065C343.745 18.823 344.945 19.3922 344.864 21.2001C344.84 21.6832 345.978 22.6397 346.61 22.6684C350.541 22.8454 351.857 26.2317 353.588 28.6805C354.702 30.2541 355.63 31.6746 357.304 32.7125C359.184 33.8747 360.867 35.3622 362.637 36.7062C363.139 37.084 363.613 37.5049 364.149 37.8301C367.678 39.9776 371.141 42.2543 374.786 44.1866C377.517 45.6358 378.607 48.4529 380.712 50.3899C380.798 50.4713 380.759 50.6865 380.779 50.8156C380.157 51.0548 379.54 51.2843 378.885 51.5378C379.545 53.5562 380.009 55.412 380.759 57.1481C381.573 59.0182 383.05 59.8552 385.188 59.3148C387.565 58.7169 388.914 60.4244 390.971 61.6919C389.244 62.0841 388.106 62.3423 386.59 62.6867C389.11 66.1399 392.74 68.2109 394.285 72.152C394.945 73.8356 395.692 75.2896 395.778 77.1931C395.978 81.4308 393.778 85.5823 395.39 89.8582C395.481 90.0973 394.993 90.6282 394.682 90.9248C393.845 91.7044 392.712 92.2783 392.138 93.2062C391.186 94.751 390.287 95.8702 388.211 95.392C387.742 95.2819 387.078 96.0089 386.504 96.3533C386.92 96.9512 387.216 97.726 387.776 98.1038C388.469 98.5678 389.383 98.6969 390.186 98.9648C389.34 104.527 389.498 106.139 391.32 112.012C391.44 112.395 391.301 112.921 391.129 113.313C390.163 115.466 390.459 116.073 392.807 116.786C394.783 117.384 396.816 117.876 398.69 118.708C400.948 119.713 402.459 121.349 402.918 124.041C404.191 131.445 403.784 138.763 402.512 146.114C401.546 151.705 400.757 157.383 397.633 162.228C395.151 166.083 392.009 169.507 389.349 173.252C386.815 176.825 383.634 179.13 379.219 179.709C378.55 179.795 377.56 180.632 377.464 181.24C377.196 182.938 377.057 184.745 377.34 186.429C378.024 190.485 379.119 194.474 379.784 198.53C380.453 202.624 383.022 205.795 386.418 206.751C390.684 207.957 393.166 210.516 395.142 213.864C398.896 220.234 403.516 225.821 409.194 230.532C411.025 232.048 413.02 233.368 414.928 234.798C419.52 238.232 423.289 242.637 429.119 244.527C445.371 249.802 461.403 255.766 477.689 260.932C488.824 264.462 500.169 267.288 510.949 271.909C513.03 272.798 513.723 273.855 513.723 276.122C513.666 433.058 513.671 589.988 513.671 746.924V749.932H510.614C360.576 749.932 210.537 749.932 60.4985 749.932C59.7811 749.932 58.9919 750.114 58.3701 749.87C57.7866 749.641 56.9114 748.909 56.9592 748.488C57.3657 744.987 55.4621 742.021 54.9025 738.779C54.3286 735.459 53.1903 732.7 50.7271 730.289C46.5564 726.205 43.1558 721.355 37.9186 718.346C36.1346 717.323 34.848 715.429 33.2122 713.807C32.3992 713.597 31.1652 713.353 29.9886 712.942C29.1755 712.659 28.4724 712.057 27.6641 711.746C20.9442 709.168 20.772 706.25 21.5612 701.037C22.0586 697.732 20.5424 696.594 18.3806 695.365C14.3534 693.078 9.7427 691.696 6.51427 688.171C4.18979 685.636 2.16186 682.833 0 680.15L0.00956574 680.145Z" fill="#1F1F22"/>
</svg>
