<svg width="391" height="774" viewBox="0 0 391 774" fill="none" xmlns="http://www.w3.org/2000/svg">
<path d="M173.987 467.866C168.479 468.844 167.294 471.187 166.254 475.602C164.998 480.906 160.701 485.528 157.534 490.311C155.103 493.991 152.375 497.473 149.774 501.036C149.074 501.996 148.518 503.109 147.648 503.872C137.645 512.73 131.535 524.307 125.408 535.839C120.716 544.661 116.491 553.707 118.411 564.19C119.272 568.847 120.438 573.451 121.344 578.109C122.259 582.821 123.704 587.559 123.704 592.28C123.704 599.702 125.121 606.576 127.561 613.576C129.042 617.83 128.602 622.865 128.521 627.541C128.342 637.045 127.795 646.549 127.498 656.053C127.472 656.824 128.001 657.928 128.62 658.368C133.114 661.554 132.531 666.212 132.756 670.852C133.419 684.645 133.348 698.601 135.626 712.134C136.945 719.996 137.609 727.894 138.847 735.737C140.282 744.846 136.021 752.825 127.588 756.666C123.802 758.398 119.801 759.663 116.006 761.386C113.97 762.311 112.301 764.097 110.229 764.878C107.843 765.775 104.954 766.933 102.711 766.34C96.0278 764.572 90.4208 766.376 84.2666 768.925C77.8074 771.599 70.6036 773.269 63.6241 773.699C53.8635 774.31 43.9145 773.996 34.2346 772.712C31.3101 772.326 28.2599 767.758 26.6002 764.438C24.797 760.83 27.6947 757.797 30.718 756.002C41.1693 749.818 51.9706 744.209 62.2066 737.694C67.4637 734.346 71.8057 729.554 76.5335 725.39C76.9641 725.013 77.1525 724.133 77.5921 724.008C83.9257 722.24 82.8582 717.851 82.2392 712.879C81.1895 704.47 81.4048 695.908 80.3552 687.508C79.4402 680.203 77.4396 673.041 76.0491 665.799C75.0712 660.719 74.4791 655.55 73.3847 650.497C71.6801 642.6 69.5809 634.783 67.9123 626.877C67.3202 624.067 67.3919 621.097 67.3022 618.189C66.9613 607.106 66.5576 596.031 66.4051 584.948C66.2616 574.501 65.2658 563.885 66.764 553.663C67.9482 545.594 66.7191 537.679 67.7508 529.763C68.6569 522.745 69.9039 515.754 70.478 508.718C70.7741 505.075 69.9218 501.332 69.6257 497.635C69.4643 495.624 69.0247 493.56 69.3207 491.613C71.5545 476.984 73.8511 462.365 76.2913 447.772C78.6776 433.521 86.6888 422.168 95.1845 410.995C97.7144 407.665 101.455 404.21 98.9613 399.059C103.689 392.121 97.6874 386.602 96.4046 380.49C95.6869 377.08 96.4404 374.72 99.3022 372.817C101.285 371.498 103.079 369.91 104.981 368.465C110.301 364.408 109.691 358.494 103.635 355.514C102.299 354.859 100.872 354.294 99.688 353.423C96.9697 351.44 97.3106 348.685 100.226 347.06C102.478 345.804 106.174 344.646 106.497 342.932C107.269 338.831 107.053 334.263 106.066 330.179C105.08 326.105 104.021 322.093 101.186 318.234C98.7371 314.896 99.9482 308.865 99.5534 304.099C90.9501 302.251 86.33 310.435 79.3325 313.307C69.1413 317.489 59.6229 323.341 49.7906 328.411C48.6333 329.004 47.0006 328.869 46.0496 329.641C43.771 331.517 40.1825 333.545 39.9313 335.833C38.9714 344.323 33.3914 349.609 28.1791 355.182C24.8598 358.727 24.3305 360.172 27.8921 363.125C30.8077 365.548 30.1528 368.285 28.8699 370.627C27.7037 372.754 25.5865 375.447 23.5321 375.797C16.4449 376.99 10.2728 373.724 5.68852 368.779C-1.00394 361.545 -1.56015 353.208 2.80879 344.108C4.44154 340.698 3.98401 336.282 4.39668 332.97C6.19091 331.481 8.60414 330.449 9.16035 328.797C10.2817 325.459 8.49649 322.856 5.30277 321.187C3.88533 320.442 2.35126 319.401 1.57975 318.073C0.781317 316.7 0.48527 314.779 0.682634 313.191C0.763375 312.562 2.74599 311.782 3.8943 311.746C8.65797 311.575 13.5293 311.055 18.1853 311.773C27.919 313.28 34.7909 308.407 41.0886 302.323C52.9843 290.844 64.0547 278.621 73.7076 265.132C76.8924 260.681 81.0101 256.84 83.836 252.191C86.9759 247.022 88.3126 241.404 84.159 235.624C82.4903 233.3 82.2392 229.997 81.0101 227.296C77.1346 218.788 75.1699 209.858 75.9953 200.579C76.8655 190.814 78.4444 181.122 79.7093 171.393C80.2296 167.418 80.5616 163.406 81.2882 159.475C82.4993 152.897 83.8629 151.829 90.3939 151.524C97.4362 151.201 104.344 144.73 104.299 137.506C104.281 135.199 101.599 132.902 100.092 130.622C98.6294 128.406 97.2837 126.09 95.5972 124.053C92.3945 120.185 89.4878 115.796 85.5405 112.871C78.9019 107.953 77.8343 100.45 75.1789 93.7012C73.9229 90.5153 74.2997 86.6383 69.5091 86.0639C68.621 85.9562 67.9482 84.3767 67.0869 83.569C64.9159 81.5228 62.6911 79.5394 61.0314 78.0317C58.8066 73.1675 56.2857 68.77 54.8503 64.0405C54.0967 61.5366 55.1105 58.4314 55.5949 55.6403C55.9627 53.5044 57.4699 51.3685 57.2456 49.3671C56.187 39.9619 61.794 34.3977 68.1455 29.1386C69.0426 28.3937 70.801 27.5501 70.7202 26.9578C70.0474 22.2462 73.905 20.8551 76.3003 18.1718C78.5879 15.5961 80.5885 13.3435 84.2397 13.2268C84.9215 13.2089 85.6841 12.796 86.2313 12.3563C89.7659 9.51137 93.1839 6.50491 96.8172 3.80358C97.7592 3.10357 99.365 3.33691 100.648 3.03177C102.496 2.59202 104.55 2.43048 106.111 1.48816C109.655 -0.647775 112.947 -0.118279 116.769 0.81507C124.646 2.73561 132.666 4.23436 140.713 5.19463C144.014 5.58951 145.333 6.26259 144.992 9.59214C144.651 12.8589 145.432 15.4974 148.464 17.6153C151.048 19.4282 152.017 21.9859 148.41 24.3731C144.571 26.9129 146.706 29.4617 148.913 31.6874C151.586 34.3887 154.421 36.9285 157.13 39.4862C152.68 44.8978 155.085 52.0864 161.033 53.6211C162.019 53.8813 163.177 54.7788 163.616 55.6942C166.029 60.7378 168.479 65.8084 167.151 71.7316C166.236 75.806 166.191 80.2305 164.513 83.9369C161.983 89.5101 158.583 94.7422 155.103 99.8039C153.317 102.406 153.398 104.336 155.758 105.844C158.727 107.746 162.037 109.101 165.132 110.807C167.626 112.18 170.075 113.661 172.471 115.195C178.939 119.332 185.425 123.443 191.795 127.741C196.056 130.622 200.129 133.79 204.255 136.86C204.83 137.29 205.682 137.937 205.673 138.484C205.637 144.632 210.176 144.991 214.554 146.382C217.443 147.306 220.682 149.523 222.135 152.089C224.772 156.729 229.949 160.418 228.693 166.924C228.477 168.028 229.518 169.419 230.083 170.631C232.972 176.724 235.861 182.818 238.821 188.876C240.122 191.532 241.333 194.287 243.074 196.648C245.227 199.564 246.106 202.634 246.59 206.197C247.066 209.706 248.941 213.008 249.901 216.481C255.382 236.288 262.873 255.61 265.151 276.207C265.815 282.175 266.093 288.134 260.37 293.088C254.933 297.781 250.089 303.561 246.33 309.682C243.19 314.797 240.185 319.554 235.735 323.718C234.47 324.902 236.596 330.135 237.682 333.329C239.27 338.032 241.719 342.457 243.091 347.213C245.855 356.789 248.564 366.409 250.502 376.174C252.816 387.814 254.269 399.615 256.144 411.345C256.602 414.244 257.786 417.133 257.661 419.987C257.436 425.013 256.135 429.994 255.866 435.02C255.516 441.67 254.395 448.042 252.843 454.557C251.219 461.369 252.027 468.809 252.125 475.979C252.287 487.188 262.37 493.004 272.373 487.969C277.63 485.322 283.058 483.033 288.396 480.547C289.194 480.179 290.172 479.802 290.621 479.129C296.344 470.478 304.185 464.178 312.824 458.703C313.676 458.165 314.304 457.016 314.69 456.02C318.009 447.395 321.616 439.399 329.95 433.745C334.435 430.712 338.212 428.468 343.685 428.073C349.256 427.669 352.692 430.523 356.173 433.772C358.667 436.097 360.972 438.636 363.197 441.221C364.83 443.115 366.579 445.062 367.62 447.288C373.568 460.058 379.3 472.928 385.167 485.735C385.912 487.35 386.845 488.947 387.975 490.303C391.25 494.206 390.792 498.972 390.927 503.459C391.124 509.993 390.909 516.562 390.451 523.086C390.146 527.493 389.716 532.07 388.253 536.18C386.603 540.82 383.75 544.993 378.107 545.873C371.854 546.842 367.404 543.952 364.238 539.007C359.599 531.774 355.392 524.271 350.736 517.056C349.516 515.162 347.587 513.152 345.551 512.452C339.531 510.387 333.314 508.88 327.142 507.291C322.369 506.062 318.413 507.587 315.659 511.787C308.473 522.709 301.565 533.82 294.146 544.589C291.921 547.82 288.423 550.18 285.471 552.9C279.586 558.32 273.836 563.92 267.708 569.072C262.326 573.595 256.557 577.669 250.878 581.833C245.298 585.926 238.687 589.067 234.246 594.138C229.321 599.747 223.49 600.456 217.165 601.066C211.181 601.64 209.387 600.159 206.731 594.847C205.565 592.513 203.358 590.476 201.196 588.905C195.329 584.643 190.278 579.419 188.574 572.491C185.595 560.375 183.721 548 181.397 535.722C181.236 534.843 181.182 533.946 181.083 533.066C179.612 519.802 178.051 506.537 176.714 493.255C176.158 487.781 176.221 482.252 175.718 476.778C175.449 473.789 174.606 470.855 174.023 467.938L173.987 467.866Z" fill="#1F1F22"/>
</svg>
