<svg width="700" height="533" viewBox="0 0 700 533" fill="none" xmlns="http://www.w3.org/2000/svg">
<path d="M348.83 532.82C297.03 532.82 245.222 532.82 193.422 532.82C153.537 532.82 113.659 532.894 73.7739 532.795C50.9082 532.737 28.0341 532.449 5.16837 532.112C3.38983 532.087 0.433832 531.182 0.137408 530.111C-0.331928 528.399 0.458535 525.798 1.63599 524.283C11.0392 512.182 20.5824 500.189 30.2244 488.277C39.2653 477.106 48.4956 466.1 57.5859 454.971C58.3023 454.09 58.9033 452.855 58.9857 451.744C59.982 437.585 65.1118 425.155 75.536 415.507C81.2833 410.189 89.0809 408.263 96.7632 407.654C108.892 406.691 121.078 406.419 133.24 405.909C134.574 405.851 136.319 405.744 137.184 406.477C140.428 409.218 143.31 407.522 146.291 406.23C157.686 401.274 169.025 396.178 180.486 391.379C191.652 386.695 203.624 385.946 215.481 385.189C224.736 384.588 233.67 383.032 242.2 379.435C243.625 378.834 245.107 377.797 245.988 376.554C253.472 366.091 260.562 355.34 268.31 345.083C272.485 339.559 277.343 334.414 282.579 329.887C286.309 326.66 286.614 323.943 285.05 320.264C282.489 314.255 279.838 308.278 276.923 302.442C273.514 295.626 272.74 288.546 273.522 281.08C273.983 276.627 274.354 272.058 273.819 267.646C273.547 265.423 271.324 263.34 269.718 261.414C268.615 260.097 266.433 259.438 265.774 258.014C261.616 248.967 257.12 239.986 254.024 230.569C252.385 225.589 253.028 219.744 253.209 214.303C253.555 203.758 254.271 193.229 254.889 182.692C254.996 180.791 254.946 178.741 255.63 177.029C256.955 173.703 257.26 170.83 254.6 167.949C254.016 167.315 254.263 165.595 254.559 164.5C258.026 151.938 261.945 139.491 264.942 126.822C266.4 120.648 266.68 114.063 266.606 107.675C266.482 97.0064 271.455 88.0666 274.988 78.534C276.495 74.4593 277.26 70.228 280.233 66.8118C282.547 64.1529 285.84 61.5516 286.532 58.4482C288.36 50.2739 295.293 47.1705 300.727 42.7829C305.099 39.2514 310.773 37.3745 315.45 34.1476C319.328 31.4723 322.531 27.8338 326.17 24.7715C327.381 23.759 329.003 23.2321 330.427 22.4748C334.256 20.458 338.2 18.6305 341.872 16.3585C347.076 13.148 351.975 9.44368 357.204 6.29087C359.106 5.14664 361.56 4.7515 363.816 4.42223C368.238 3.76368 372.7 3.34385 377.155 2.89109C382.976 2.30663 388.806 1.81271 394.636 1.24471C398.827 0.841351 403.109 -0.393434 407.176 0.125175C414.101 1.00599 421.067 2.44657 427.695 4.61156C434.373 6.79301 440.705 10.0775 447.136 12.9999C449.845 14.2264 452.438 15.7411 455.057 17.157C455.526 17.4122 455.864 18.0954 456.317 18.153C464.839 19.1985 468.709 26.7389 474.728 31.2582C475.683 31.9744 476.457 33.0116 477.494 33.5302C483.316 36.4361 487.186 41.2188 490.726 46.4872C493.592 50.7514 496.918 54.7192 500.154 58.7199C501.694 60.6132 504.065 62.0126 505.07 64.1117C506.56 67.2152 507.194 70.7302 508.117 74.0888C508.397 75.1096 508.191 76.2867 508.586 77.2334C510.998 83.0122 513.765 88.6428 515.955 94.5039C521.349 108.943 522.946 124.032 522.435 139.31C522.263 144.579 520.048 149.806 520.081 155.041C520.122 160.952 516.894 165.463 515.42 170.674C512.851 179.762 510.908 189.023 508.635 198.201C508.084 200.44 507.845 203.074 506.486 204.737C502.723 209.355 501.883 215.06 501.62 220.312C501.373 225.268 498.886 229.005 497.791 233.368C495.576 242.176 494.094 251.173 492.316 260.089C492.126 261.027 492.101 262.007 491.83 262.92C489.071 272.222 485.531 281.376 483.736 290.859C482.163 299.124 479.75 306.92 476.226 314.444C473.353 320.577 470.191 326.578 467.325 332.719C466.066 335.411 464.114 338.473 464.501 341.058C464.979 344.235 467.045 347.618 469.359 350.006C482.427 363.457 495.321 376.982 505.696 392.77C509.212 398.129 515.05 400.928 521.661 401.463C531.872 402.295 542.205 402.369 552.251 404.13C563.029 406.024 572.473 411.547 580.831 418.717C581.942 419.672 583.202 420.784 584.553 421.072C592.927 422.891 600.016 427.081 606.62 432.349C607.987 433.436 609.65 434.218 611.28 434.91C617.637 437.61 622.544 442.071 626.554 447.537C636.665 461.326 646.06 475.707 657.003 488.796C664.126 497.307 673.488 503.942 681.788 511.483C684.62 514.051 686.868 517.624 690.12 519.27C693.431 520.941 695.991 522.974 698.107 525.806C698.832 526.778 699.515 527.872 699.828 529.017C700.339 530.918 699.763 532.153 697.399 532.137C692.739 532.087 688.078 532.244 683.418 532.26C639.72 532.433 596.023 532.639 552.325 532.737C494.489 532.869 436.654 532.919 378.827 532.993C368.822 533.009 358.818 532.993 348.814 532.993C348.814 532.935 348.814 532.877 348.814 532.82H348.83Z" fill="#1F1F22"/>
</svg>
