<svg width="619" height="662" viewBox="0 0 619 662" fill="none" xmlns="http://www.w3.org/2000/svg">
<path d="M619 661.996H0C0 629.229 0 596.467 0 563.7C1.02843 563.293 2.11713 562.995 3.07021 562.456C5.34933 561.164 7.5418 559.721 9.80584 558.406C12.6011 556.785 15.449 555.256 18.2442 553.639C20.8887 552.113 23.4805 550.489 26.1251 548.967C32.8456 545.101 39.6378 541.359 46.2905 537.38C49.7789 535.296 53.4368 533.563 56.7782 531.118C61.9015 527.369 67.5974 524.407 73.0673 521.136C73.8697 520.658 74.8039 520.409 75.6063 519.927C82.3985 515.846 89.2132 511.807 95.9338 507.609C98.9512 505.725 101.984 503.762 104.621 501.403C109.684 496.878 115.191 493.272 121.697 491.214C124.07 490.465 126.677 489.899 128.632 488.49C132.471 485.732 135.933 482.45 139.538 479.371C142.247 477.058 144.906 474.688 147.641 472.404C149.371 470.961 151.13 469.533 152.995 468.278C155.986 466.266 159.033 464.333 162.13 462.491C165.445 460.52 169.295 459.416 171.811 456.194C174.731 452.453 177.677 448.73 180.683 445.056C181.745 443.756 182.996 442.607 184.198 441.431C187.501 438.198 190.715 434.864 194.165 431.796C198.697 427.765 203.696 424.223 207.987 419.961C212.138 415.839 215.525 410.959 219.473 406.619C222.634 403.141 226.31 400.303 230.963 398.86C232.82 398.284 234.545 397.119 236.177 396C237.506 395.085 238.52 393.717 239.827 392.756C242.939 390.461 244.566 387.24 245.417 383.656C246.672 378.373 247.862 373.053 248.653 367.687C249.117 364.545 250.089 361.022 246.917 358.429C246.48 358.075 246.095 357.657 245.704 357.25C244.472 355.98 244.197 354.514 244.434 352.751C244.634 351.27 244.321 349.725 244.336 348.21C244.344 347.408 244.381 346.526 244.713 345.825C247.079 340.844 247.629 338.772 242.893 335.859C242.468 335.595 242.031 335.35 241.605 335.083C237.717 332.664 233.867 330.301 231.313 326.224C228.492 321.721 225.614 317.369 225.881 311.706C225.941 310.398 225.572 308.861 224.875 307.764C220.049 300.176 218.625 291.622 217.507 282.948C216.957 278.664 216.339 274.384 215.676 270.114C214.855 264.801 212.952 259.549 213.785 254.123C214.629 248.625 212.218 245.08 208.126 241.994C206.751 240.954 205.505 239.458 204.778 237.898C202.935 233.934 201.413 229.823 199.786 225.761C199.089 224.02 198.513 222.227 197.786 220.497C197.017 218.662 196.102 216.887 195.311 215.06C194.651 213.534 193.872 212.015 193.533 210.41C193.122 208.466 193.491 206.311 192.866 204.472C190.979 198.888 191.012 193.33 192.361 187.693C193.261 183.928 194.026 180.123 195.1 176.407C196.818 170.462 198.867 164.61 200.513 158.645C201.267 155.909 201.764 152.989 201.681 150.175C201.624 148.268 201.986 146.923 203.248 145.664C203.508 145.408 203.915 145.046 203.877 144.786C203.576 142.68 205.124 141.858 206.45 140.83C206.846 140.525 207.132 140.027 207.35 139.564C207.622 138.983 207.667 138.283 207.991 137.74C208.925 136.165 209.912 134.62 210.952 133.113C212.15 131.376 213.4 129.676 214.674 127.996C215.906 126.372 217.315 124.872 218.422 123.169C219.628 121.315 220.566 119.292 221.635 117.351C221.715 117.208 221.903 117.099 222.061 117.023C225.693 115.298 228.484 112.509 231.219 109.676C232.18 108.681 232.944 107.498 233.935 106.224C236.828 104.197 240.004 101.978 243.183 99.7546C243.101 99.5511 243.018 99.3477 242.935 99.148C241.556 99.57 240.181 99.992 238.802 100.414C238.674 100.165 238.542 99.9204 238.414 99.6717C243.609 98.5074 248.213 96.5443 250.36 91.2351C250.006 90.96 249.49 90.5606 248.68 89.9314C249.776 89.2757 250.65 88.7407 251.539 88.2282C253.14 87.3088 255.227 87.192 255.931 84.8785C256.24 83.8611 257.355 83.0208 258.237 82.2522C260.249 80.5 262.637 79.0945 264.347 77.0937C268.046 72.7643 272.465 69.633 277.709 67.5003C280.075 66.5395 282.32 65.2734 284.592 64.0978C285.07 63.8529 285.432 63.3857 285.861 63.0428C286.419 62.5944 286.95 62.097 287.564 61.7466C288.679 61.106 289.926 60.6727 290.966 59.9417C292.058 59.1768 292.846 57.9333 293.987 57.2928C297.844 55.1262 301.804 53.1404 305.714 51.068C308.698 49.4854 311.689 47.9066 314.631 46.2449C315.87 45.5479 316.925 44.5079 318.179 43.856C320.541 42.6314 322.975 41.5462 325.405 40.4535C327.793 39.3796 330.212 38.3735 332.615 37.3373C334.502 36.5234 336.333 35.5362 338.281 34.922C341.185 34.0064 344.169 33.3508 347.119 32.5859L347.024 32.6612C348.279 32.3259 349.545 32.0357 350.784 31.6476C355.041 30.3062 359.309 28.9949 363.521 27.5216C364.557 27.1599 365.751 26.4214 366.229 25.517C366.888 24.2811 367.514 23.6556 369.1 24.0249C368.629 24.9179 366.463 24.0588 366.953 26.1463C367.397 26.0898 367.785 26.1124 368.117 25.988C370.32 25.1553 372.336 23.6443 374.943 24.3603C375.346 24.4695 375.922 23.9119 376.431 23.682C377.052 23.3994 377.662 23.0415 378.314 22.8907C380.186 22.4687 382.183 22.4047 383.942 21.7151C388.493 19.9291 392.577 20.8786 396.558 23.2638C397.146 23.6142 397.828 23.8064 398.465 24.0701C398.544 23.9006 398.627 23.731 398.706 23.5614C396.913 22.642 395.119 21.7226 393.326 20.8032C393.383 20.6299 393.439 20.4566 393.5 20.287C398.095 20.4302 402.838 19.5372 407.016 22.9096C407.144 20.9916 406.451 20.1514 405.091 19.5033C404.127 19.0436 403.407 18.0752 402.578 17.3329C402.665 17.1784 402.752 17.0239 402.838 16.8732C406.327 17.8906 409.815 18.9079 413.303 19.9253C413.428 19.6766 413.548 19.4279 413.669 19.1755C412.154 18.1882 410.76 16.8619 409.103 16.3005C406.914 15.5582 404.518 15.415 402.213 15.0231C401.23 14.8535 400.239 14.7066 399.252 14.5521C401.584 14.1565 403.87 14.1904 406.15 14.1301C406.609 14.1188 407.057 13.7457 407.596 13.5008C408.749 13.7684 410.146 14.0962 411.544 14.424L411.529 14.0623C406.515 9.55947 401.505 5.05292 396.491 0.550132C396.626 0.365499 396.762 0.184633 396.901 0C399.463 1.5788 402.04 3.12746 404.579 4.74017C407.208 6.40941 409.627 8.57225 412.459 9.72526C416.001 11.1646 418.332 13.8889 421.086 16.1987C421.825 16.8167 422.661 17.3216 423.557 17.9546C424.111 18.614 424.729 19.5485 425.535 20.272C426.921 21.5116 428.428 22.6157 429.879 23.7875C430.399 24.2058 430.896 24.6466 431.404 25.0762C431.751 24.6014 432.098 24.1304 432.535 23.5313C432.802 23.9609 432.945 24.4168 433.254 24.6466C434.768 25.7695 434.663 29.1909 437.884 27.9399C438.053 27.8758 438.453 28.1961 438.637 28.4222C439.862 29.9445 441.331 29.7146 442.936 29.1871C442.834 28.8819 442.736 28.7086 442.725 28.5277C442.679 27.8758 442.664 27.2202 442.638 26.5683C443.147 27.028 443.715 27.435 444.156 27.955C444.992 28.9422 445.606 30.1743 446.582 30.9769C448.198 32.3033 450.044 33.3508 451.762 34.5603C452.745 35.2536 453.664 36.0298 454.941 37.0284C454.64 35.9658 454.504 35.3101 454.271 34.6884C453.581 32.827 452.839 30.9844 452.154 29.1193C452.037 28.8065 451.98 28.1735 452.093 28.1245C453.981 27.2729 451.879 26.8622 451.916 25.9617C452.451 26.1463 453.171 26.1953 453.28 26.4741C453.713 27.5932 453.973 28.7839 454.256 29.9595C454.369 30.4268 454.226 30.9995 454.444 31.3876C455.401 33.0945 456.927 34.6319 457.371 36.4443C458.577 41.3653 463.583 41.9984 466.405 45.0316C466.563 45.205 467.034 45.0429 467.305 45.1635C469.603 46.1733 472.123 46.2449 474.459 47.4658C479.081 49.8886 484.001 51.7575 488.853 53.7169C490.729 54.4743 492.73 55.0998 494.73 55.3409C496.549 55.5595 498.026 56.1096 499.348 57.3418C499.725 57.696 500.373 57.7826 500.915 57.9333C503.27 58.5852 505.639 59.1956 507.99 59.8701C508.389 59.9831 508.74 60.3147 509.075 60.5936C511.03 62.195 513.313 62.4776 515.668 62.0216C517.721 61.6222 518.508 61.9915 519.156 63.9885C519.909 66.3134 521.134 68.2502 523.586 69.1696C523.978 69.3165 524.343 69.8554 524.479 70.2924C525.025 72.0257 525.756 73.7666 525.895 75.5451C526.091 78.0018 526.728 79.7766 529.806 79.8595C527.967 80.8957 527.666 83.3976 529.101 84.253C530.231 84.9274 531.584 85.2251 532.816 85.7413C533.584 86.0616 534.315 86.4761 535.554 87.0978C533.317 88.2508 531.697 89.0873 530.438 89.7317C531.139 90.8093 532.156 91.936 531.983 92.1733C530.367 94.3513 531.731 95.9941 532.718 97.7387C532.887 98.0402 532.985 98.3831 533.173 98.8427C532.616 98.79 532.235 98.7561 531.844 98.7184C531.915 99.1743 531.968 99.5097 532.055 100.056C530.529 99.4193 529.64 100.06 529.606 101.292C529.542 103.873 529.757 106.367 531.983 108.316C533.347 109.506 534.56 111.006 534.262 113.161C534.191 113.681 534.605 114.352 534.967 114.827C535.758 115.87 536.624 116.858 537.513 117.819C541.499 122.118 545.65 126.274 549.451 130.728C552.348 134.123 554.812 137.891 557.622 141.7C555.422 142.096 555.867 142.955 556.695 143.637C559.63 146.045 560.689 149.636 562.165 152.831C564.444 157.76 566.012 163.016 567.884 168.133C568.129 168.088 568.374 168.046 568.615 168.001V163.675C568.897 163.687 569.176 163.698 569.458 163.709C569.33 165.985 569.202 168.257 569.074 170.533C569.274 170.563 569.474 170.593 569.673 170.627C569.99 169.523 570.31 168.423 570.626 167.319C570.766 167.327 570.905 167.334 571.044 167.345C571.237 169.158 571.429 170.97 571.621 172.779L572.303 172.835C572.634 171.863 572.966 170.891 573.388 169.651C573.738 170.239 574.013 170.563 574.141 170.936C575.222 174.184 576.36 177.417 577.317 180.703C578.153 183.574 578.209 186.819 579.611 189.343C582.075 193.771 581.525 198.507 581.958 203.108C582.41 207.897 582.195 212.758 582.139 217.584C582.112 220.003 581.909 222.43 581.577 224.827C581.295 226.858 580.684 228.843 580.27 230.859C579.784 233.233 578.228 235.524 579.878 238.064C577.362 238.972 576.846 241.108 576.043 243.075C575.241 245.042 574.31 246.96 573.395 248.987C573.18 248.633 572.954 248.252 572.585 247.638C572.367 248.61 572.208 249.322 572.046 250.035C572.22 249.982 572.397 249.929 572.57 249.88C572.871 250.724 573.587 251.666 573.414 252.397C572.276 257.152 571.301 262.043 566.901 265.156C566.708 265.291 566.633 265.581 566.46 265.755C565.443 266.776 564.41 267.786 563.382 268.799C563.115 268.57 562.847 268.34 562.576 268.11C563.864 266.184 564.908 264.014 566.509 262.401C568.283 260.615 569.669 258.814 570.317 256.346C570.679 254.963 570.381 254.225 568.965 253.539C568.713 254.183 568.633 254.861 568.257 255.253C566.464 257.134 564.851 259.379 562.681 260.66C559.924 262.288 556.688 263.102 553.67 264.297C553.343 264.428 553.041 264.711 552.811 264.994C550.521 267.771 546.701 267.782 544.03 269.873C543.91 269.967 543.646 269.964 543.484 269.903C541.853 269.304 541.457 270.325 541.344 271.584C541.216 273.008 540.614 273.898 539.046 273.992C539.156 273.102 539.257 272.273 539.431 270.864C537.035 273.717 536.375 277.39 533.042 278.37C532.473 277.843 531.862 277.157 531.772 277.217C531.056 277.715 530.442 278.351 529.809 278.935C531.719 281.117 531.991 284.798 529.286 286.091C529.048 283.879 528.826 281.829 528.608 279.779C528.374 279.738 528.141 279.693 527.907 279.651C527.086 281.189 526.103 282.669 525.5 284.29C525.025 285.571 525.018 287.029 524.81 288.412C524.72 289.03 524.543 289.659 524.596 290.27C524.746 291.954 524.626 293.484 523.273 294.757C522.893 295.119 522.867 295.869 522.705 296.449C522.305 297.866 522.29 299.58 521.446 300.639C519.939 302.523 519.405 304.66 519.02 306.856C518.757 308.356 518.971 309.939 518.971 311.563C518.508 311.389 517.973 311.186 517.385 310.967C517.355 314.117 516.719 315.975 515.475 316.54C516.662 317.61 516.078 318.443 515.366 319.562C514.601 320.768 514.338 322.313 513.938 323.733C513.46 325.433 513.434 327.4 512.526 328.805C511.712 330.064 511.332 331.107 511.396 332.558C511.456 333.956 511.418 335.475 510.932 336.759C509.418 340.78 507.674 344.714 506.005 348.678C505.862 349.017 505.677 349.446 505.387 349.597C503.021 350.837 502.686 353.263 501.997 355.434C498.9 365.155 496.271 375.05 492.673 384.583C490.126 391.332 486.766 397.888 482.931 404.004C478.102 411.702 471.946 418.443 465.278 424.694C461.847 427.915 458.309 430.934 455.778 435.21C450.202 444.638 443.941 453.662 437.884 462.8C434.84 467.389 431.555 471.824 428.545 476.436C427.988 477.292 427.86 478.761 428.146 479.771C429.069 483.023 430.165 486.241 431.423 489.379C432.06 490.969 433.111 492.409 434.102 493.829C435.028 495.159 436.057 496.433 437.153 497.628C439.123 499.779 440.871 502.345 443.271 503.845C446.578 505.917 450.372 507.236 454.018 508.736C457.202 510.047 460.46 511.181 463.7 512.361C467.995 513.92 472.248 515.631 476.617 516.939C481.036 518.261 485.598 519.098 490.059 520.288C491.848 520.767 493.487 521.758 493.875 523.804C494.304 526.076 494.666 528.367 494.865 530.669C495.212 534.645 496.433 538.032 500.35 539.814C502.682 540.877 505.078 541.8 507.376 542.923C511.204 544.792 515.042 546.646 518.753 548.729C523.386 551.333 527.975 554.039 532.435 556.932C535.257 558.76 537.811 560.998 540.478 563.067C543.936 565.75 547.481 568.331 550.811 571.164C555.234 574.932 559.506 578.874 563.796 582.792C566.569 585.325 569.545 587.713 571.93 590.581C577.437 597.209 583.499 603.381 588.125 610.759C590.973 615.299 594.623 619.331 597.61 623.796C600.142 627.587 602.387 631.588 604.485 635.639C606.904 640.304 608.979 645.142 611.292 649.867C611.861 651.028 612.799 651.996 613.492 653.1C615.346 656.054 617.158 659.035 618.989 662L619 661.996ZM352.193 32.9137C355.606 32.0433 359.015 31.1691 362.428 30.2987C358.864 30.585 355.32 30.943 352.193 32.9137Z" fill="#1F1F22"/>
</svg>
