<svg width="667" height="800" viewBox="0 0 667 800" fill="none" xmlns="http://www.w3.org/2000/svg">
<path d="M625.46 800H390.138C389.871 797.931 389.345 795.856 389.391 793.794C389.519 787.972 390.006 782.156 390.116 776.333C390.234 770.344 390.049 764.351 390.045 758.358C390.045 753.472 390.159 748.587 390.141 743.701C390.12 737.527 390.013 731.349 389.942 725.176C389.9 721.468 389.953 717.76 389.793 714.055C389.64 710.507 389.256 706.966 388.997 703.421C388.908 702.208 388.997 700.97 388.795 699.774C388.29 696.762 387.697 693.76 387.057 690.772C386.947 690.265 386.474 689.811 386.105 689.388C385.874 689.122 385.351 689.019 385.252 688.739C384.431 686.422 383.522 684.109 384.126 681.557C384.314 680.77 384.765 679.748 384.452 679.198C383.649 677.793 384.026 676.434 384.083 675.036C384.104 674.539 384.115 674.025 384.015 673.542C383.774 672.368 383.344 671.218 383.205 670.033C382.797 666.598 382.662 663.121 382.082 659.718C381.67 657.288 381.457 654.715 379.737 652.657C378.902 651.657 378.099 650.582 377.545 649.414C376.991 648.247 376.735 646.931 376.397 645.664C375.374 641.821 374.386 637.975 373.363 634.132C372.954 632.589 372.368 631.077 372.091 629.512C371.551 626.461 371.224 623.37 370.709 620.312C370.201 617.3 368.84 616.522 365.922 616.441C364.725 616.409 363.503 616.902 362.32 616.81C360.671 616.682 359.054 616.136 357.405 615.933C355.156 615.657 352.889 615.472 350.622 615.366C349.535 615.316 348.437 615.557 347.343 615.632C346.231 615.706 344.98 616.075 344.532 614.486C344.504 614.386 344.33 614.284 344.209 614.262C342.386 613.95 340.545 613.326 338.74 613.421C335.191 613.606 331.836 614.603 329.196 617.232C328.507 617.917 327.423 618.392 327.086 619.201C326.436 620.752 325.259 621.149 323.856 621.327C320.85 621.703 318.178 622.913 316.121 625.052C314.273 626.972 312.137 628.537 309.913 629.779C307.326 631.226 304.324 631.943 301.481 632.922C299.651 633.554 297.598 633.674 296.351 635.512C296.116 635.86 295.476 635.974 294.997 636.109C293.895 636.421 292.772 636.655 291.671 636.974C291.301 637.081 290.825 637.258 290.662 637.549C290.004 638.72 289.027 638.809 287.947 638.422C286.878 638.039 286.135 638.241 285.474 639.203C285.236 639.547 284.607 639.692 284.127 639.784C283.221 639.958 282.29 640.008 281.377 640.146C280.493 640.281 279.586 640.689 278.744 640.576C276.683 640.292 274.875 640.817 273.123 641.789C272.576 642.091 272.057 642.478 271.478 642.68C269.367 643.404 267.228 643.386 264.986 643.244C261.064 642.999 257.109 643.223 253.168 643.269C252.909 643.269 252.639 643.404 252.39 643.514C250.312 644.401 249.199 644.078 247.767 642.24C247.48 641.867 247.067 641.413 246.659 641.346C244.769 641.041 242.86 640.831 240.952 640.643C237.14 640.271 233.302 640.072 229.511 639.54C226.768 639.153 224.107 638.177 221.36 637.783C219.246 637.478 217.061 637.719 214.911 637.613C214.175 637.578 212.992 637.428 212.804 636.992C211.887 634.877 209.652 634.388 208.149 633.039C207.019 632.028 205.122 631.876 203.569 631.336C201.529 630.63 199.167 630.648 197.621 628.828C196.637 627.667 195.688 626.543 194.075 626.216C193.769 626.152 193.563 625.617 193.307 625.304C191.715 623.37 190.159 621.412 188.514 619.524C187.768 618.666 186.865 617.942 186.016 617.179C184.382 615.717 182.907 613.978 181.049 612.893C178.853 611.608 177.542 609.98 176.991 607.567C176.888 607.109 176.419 606.46 176.032 606.389C173.765 605.977 173.033 603.178 170.648 603.018C170.592 603.014 170.563 602.844 170.492 602.805C169.849 602.454 169.22 601.872 168.552 601.815C166.711 601.666 164.853 601.762 163.005 601.716C161.637 601.68 160.145 601.9 158.933 601.428C156.386 600.431 153.675 599.654 151.72 597.465C150.853 596.496 149.738 595.716 148.633 594.999C147.304 594.14 145.854 593.473 144.493 592.661C144.095 592.423 143.815 591.976 143.502 591.603C142.361 590.252 141.278 588.85 140.084 587.548C138.705 586.047 137.177 584.677 135.823 583.155C135.209 582.463 134.843 581.548 134.384 580.718C134.072 580.153 133.638 579.593 133.539 578.986C133.194 576.868 132 575.271 129.897 575.062C126.365 574.714 122.826 573.862 119.251 574.81C118.416 575.03 117.553 575.197 116.696 575.275C113.626 575.548 110.553 575.778 107.479 576.013C105.17 576.19 102.277 574.668 101.752 572.794C101.076 570.382 100.522 567.923 100.078 565.457C99.275 561.007 98.6567 556.526 97.8466 552.08C96.9015 546.878 95.7786 541.709 94.8335 536.507C93.6893 530.216 92.5346 523.925 91.6036 517.602C90.9889 513.422 89.3296 509.498 89.0915 505.208C88.9138 502.008 87.9474 498.85 87.3255 495.674C86.2631 490.253 85.1972 484.831 84.1241 479.413C82.9622 473.555 81.7932 467.7 80.6242 461.842C80.0095 458.752 79.6151 457.229 75.3974 457.148C72.6721 457.095 70.0498 457.52 67.3813 457.662C64.9936 457.79 62.5952 458.557 60.2429 458.39C56.5618 458.134 52.8096 458.241 49.2813 456.545C46.7691 455.338 44.4453 454.04 42.5906 451.939C41.4784 450.68 40.2383 449.533 39.1084 448.288C37.68 446.713 36.145 445.201 34.9583 443.455C33.8461 441.82 32.9258 439.982 32.2898 438.108C31.1634 434.791 30.0726 431.423 29.4295 427.989C28.9285 425.321 28.9533 422.514 29.0706 419.782C29.1949 416.844 29.3051 413.803 30.1259 411.014C31.8634 405.106 35.0258 399.958 39.4957 395.604C43.0738 392.12 47.2311 389.512 51.8218 387.82C55.2294 386.563 58.9602 386.39 62.6733 386.847C68.1986 387.529 73.738 388.064 79.2775 388.618C82.3297 388.923 85.3961 389.125 88.4519 389.384C94.2046 389.874 99.9501 390.431 105.706 390.843C109.913 391.144 114.131 391.35 118.345 391.414C119.656 391.435 121.067 391.041 122.268 390.484C123.782 389.782 125.093 388.65 126.56 387.823C127.576 387.252 128.696 386.844 129.79 386.429C131.361 385.836 133.315 385.698 134.452 384.655C136.307 382.948 138.389 381.951 140.631 381.007C142.571 380.191 144.543 379.921 146.551 380.173C154.503 381.16 162.455 382.167 170.386 383.306C176.405 384.172 181.948 386.336 186.883 389.959C188.432 391.098 190.141 392.053 191.548 393.341C194.508 396.055 197.33 398.922 200.19 401.743C203.093 404.606 205.996 407.477 208.867 410.372C211.116 412.639 213.227 415.056 215.582 417.209C217.32 418.799 219.37 420.048 221.246 421.492C223.158 422.968 225.233 424.309 226.864 426.059C229.003 428.351 230.748 431.005 232.727 433.453C233.231 434.081 233.963 434.528 234.596 435.053C236.028 436.249 237.46 437.441 238.895 438.633C239.13 438.829 239.343 439.091 239.613 439.183C241.51 439.811 243.411 440.436 245.33 440.989C246.335 441.28 247.384 441.557 248.418 441.582C249.047 441.596 249.85 441.273 250.287 440.823C250.926 440.17 251.459 439.584 252.468 439.684C252.749 439.712 253.115 439.549 253.339 439.354C254.561 438.271 255.723 437.122 256.956 436.054C258.9 434.365 260.953 432.758 263.7 432.885C268.266 433.098 272.381 434.581 275.799 437.711C277.55 439.315 278.805 441.231 279.356 443.587C279.54 444.374 279.729 445.304 280.254 445.843C282.251 447.901 283.587 450.303 284.461 452.993C284.838 454.153 285.638 454.813 286.728 455.381C290.363 457.272 293.753 459.515 296.009 463.077C296.493 463.843 296.734 464.766 297.249 465.504C299.769 469.105 301.627 472.959 302.224 477.369C302.377 478.49 302.704 479.622 303.144 480.665C304.093 482.911 305.159 485.111 306.196 487.318C306.545 488.06 307.117 488.73 307.323 489.504C308.208 492.8 309.746 495.781 311.473 498.69C312.134 499.804 312.937 500.365 314.276 500.099C315.033 499.95 315.822 499.921 316.597 499.911C318.576 499.886 319.94 499.191 320.619 497.133C321.767 493.648 324.229 491.111 327.32 489.291C328.752 488.447 330.305 487.904 330.959 486.193C331.026 486.02 331.318 485.927 331.506 485.8C332.59 485.054 333.691 484.334 334.75 483.557C337.333 481.659 339.863 479.675 343.175 479.168C344.127 479.023 344.557 478.419 344.699 477.486C344.777 476.968 344.937 476.397 345.25 475.996C346.259 474.697 347.343 473.452 348.419 472.206C350.018 470.358 351.756 468.612 353.22 466.661C355.021 464.251 356.908 462.041 359.729 460.749C360.284 460.494 360.902 459.674 360.923 459.099C360.966 457.755 360.379 456.559 359.122 455.711C358.887 456.08 358.702 456.371 358.393 456.86C358.208 456.13 358.027 455.654 357.97 455.164C357.647 452.404 356.681 449.881 355.444 447.394C353.255 442.976 351.283 438.449 349.183 433.985C347.183 429.731 344.852 425.608 343.178 421.233C341.569 417.021 339.614 413.033 337.39 409.144C337.124 408.679 336.736 408.278 336.388 407.86C335.066 406.274 333.638 404.766 332.455 403.084C331.744 402.073 331.456 400.774 330.92 399.635C330.358 398.45 329.609 397.343 329.15 396.126C328.496 394.391 328.045 392.581 327.484 390.811C326.759 388.522 325.729 386.287 325.334 383.941C324.655 379.893 324.279 375.788 323.934 371.693C323.582 367.474 323.341 363.241 323.209 359.008C323.099 355.464 323.092 351.901 323.273 348.36C323.408 345.71 323.44 343.02 324.293 340.437C324.972 338.375 325.494 336.261 326.155 334.192C326.5 333.113 326.979 332.077 327.416 331.031C328.063 329.473 328.592 327.844 329.413 326.382C330.966 323.615 332.618 320.9 334.363 318.246C335.653 316.284 336.768 314.209 338.847 312.793C340.435 311.711 341.839 310.256 343.036 308.737C345.14 306.065 347.876 304.227 350.644 302.393C352.118 301.417 353.561 300.392 355.085 299.498C357.444 298.114 359.413 296.123 362.007 295.094C362.966 294.715 363.847 294.129 364.793 293.707C366.374 293.001 367.951 292.281 369.579 291.702C371.121 291.152 372.762 290.883 374.29 290.301C377.478 289.091 380.686 288.058 384.14 287.98C384.755 287.966 385.355 287.672 385.973 287.547C386.457 287.448 386.947 287.377 387.437 287.359C388.482 287.324 389.53 287.342 390.575 287.317C394.263 287.228 397.994 286.352 401.59 287.966C401.849 288.083 402.265 287.806 402.606 287.817C402.986 287.828 403.54 287.828 403.711 288.058C404.592 289.251 404.667 289.282 405.662 288.275C407.509 288.683 409.272 289.073 411.126 289.481C411.023 289.176 410.931 288.917 410.743 288.367C411.659 288.615 412.367 288.743 413.02 288.999C413.823 289.314 414.559 289.818 415.373 290.106C419.203 291.461 422.987 293.008 426.913 293.991C428.811 294.466 429.681 296.063 431.373 296.716C433.089 297.379 434.851 298.384 435.867 300.154C435.889 300.19 435.935 300.218 435.978 300.236C438.195 301.112 439.215 303.301 440.913 304.753C441.499 305.256 441.748 306.147 442.171 306.85C442.285 307.034 442.445 307.251 442.633 307.325C443.706 307.737 444.747 308.138 444.633 309.603C444.626 309.713 444.999 309.83 445.152 309.986C445.358 310.192 445.578 310.416 445.703 310.671C446.182 311.665 446.58 312.697 447.099 313.669C447.607 314.62 448.474 315.45 448.734 316.451C449.103 317.867 450.166 318.885 450.489 320.375C450.713 321.404 450.926 322.962 452.401 323.462C452.507 323.498 452.571 323.778 452.589 323.952C452.895 326.833 454.078 329.462 454.938 332.184C455.083 332.649 455.225 333.12 455.392 333.578C455.567 334.061 455.726 334.558 455.979 335.001C456.21 335.409 456.682 335.707 456.831 336.133C457.258 337.336 457.99 338.634 457.83 339.791C457.642 341.161 459.45 341.817 458.622 343.403C458.334 343.95 459.567 345.284 460.093 346.263C460.289 346.632 460.523 347.008 460.605 347.409C460.861 348.686 461.028 349.982 461.273 351.259C461.383 351.834 461.802 352.423 461.724 352.951C461.365 355.385 461.817 357.631 462.915 359.81C463.313 360.601 463.366 361.591 463.842 362.315C464.432 363.213 465.292 363.937 466.063 364.71C466.205 364.852 466.482 364.856 466.695 364.927C467.338 365.132 467.974 365.37 468.628 365.533C469.008 365.629 469.556 365.789 469.79 365.611C471.236 364.497 471.83 365.778 472.096 366.63C472.924 369.287 474.001 371.998 474.097 374.72C474.274 379.733 474.008 384.782 473.578 389.789C473.095 395.427 472.245 401.033 471.513 406.646C471.389 407.608 471.567 408.027 472.629 408.183C474.161 408.406 475.71 408.743 477.159 409.283C479.515 410.159 481.491 411.61 482.873 413.785C484.468 416.294 486.05 418.813 487.73 421.265C489.947 424.501 492.25 427.684 494.538 430.87C494.933 431.416 495.405 431.927 495.92 432.36C497.356 433.563 498.816 434.737 500.305 435.869C500.788 436.238 501.382 436.661 501.947 436.696C503.901 436.813 505.862 436.771 507.82 436.792C508.932 436.802 509.988 437.271 510.19 438.314C510.528 440.049 511.64 440.294 513.068 440.514C516.408 441.035 519.72 441.752 523.063 442.27C527.54 442.969 531.708 444.314 535.08 447.507C536.743 449.083 536.672 448.991 538.584 447.713C541.174 445.989 543.843 444.25 547.208 444.956C549.176 445.368 551.144 445.861 553.049 446.5C554.328 446.929 555.618 447.525 556.68 448.334C558.091 449.409 559.58 450.176 561.314 450.115C564.515 450.005 567.265 451.283 570.008 452.635C572.251 453.742 574.454 454.934 576.71 456.012C579.432 457.315 582.242 458.457 584.232 460.884C584.427 461.125 584.733 461.278 584.992 461.462C586.289 462.392 587.625 463.276 588.88 464.258C591.203 466.079 593.481 467.956 595.773 469.819C596.054 470.046 596.299 470.322 596.547 470.588C599.674 473.924 602.638 477.429 605.981 480.534C608.092 482.496 608.728 484.607 608.373 487.251C608.294 487.84 608.159 488.422 608.014 488.997C607.452 491.228 607.57 493.297 608.476 495.529C609.655 498.428 610.327 501.539 611.116 504.587C611.524 506.17 611.524 507.877 612.05 509.409C612.786 511.56 613.891 513.582 614.743 515.697C616.79 520.781 618.041 526.011 617.895 531.564C617.742 537.497 616.609 543.178 614.353 548.663C613.677 550.302 612.892 552.002 612.725 553.73C612.189 559.318 610.973 564.719 609.009 569.967C607.68 573.511 606.18 576.999 605.072 580.608C603.412 585.99 602.012 591.454 601.177 597.039C601.017 598.118 600.495 598.59 599.454 598.82C598.857 598.952 598.178 599.36 597.823 599.849C595.922 602.472 594.092 605.143 592.291 607.833C591.879 608.447 591.726 609.227 591.374 609.884C591.019 610.547 590.699 611.505 590.13 611.725C587.97 612.563 587.27 614.61 585.799 616.129C586.357 616.302 586.698 616.409 587.039 616.515C584.523 616.923 582.523 619.088 582.896 621.682C583.486 625.794 584.015 629.913 584.63 634.019C584.726 634.668 585.053 635.342 585.444 635.878C586.982 637.971 588.61 640.001 590.159 642.087C590.614 642.698 590.962 643.4 591.274 644.099C592.287 646.363 592.955 648.712 594.614 650.759C596.082 652.569 597.105 654.939 597.663 657.224C598.168 659.282 599.156 660.949 600.15 662.709C601.128 664.441 601.987 666.243 602.776 668.067C603.295 669.27 603.686 670.544 603.967 671.825C604.137 672.616 604.265 673.62 603.92 674.266C603.43 675.181 603.451 675.774 603.991 676.611C604.901 678.023 604.734 678.623 603.426 679.709C601.06 681.675 600.616 685.063 602.446 687.515C603.377 688.76 604.4 689.938 605.352 691.166C606.738 692.951 607.157 694.838 606.273 697.052C605.814 698.202 605.455 699.6 605.676 700.767C606.23 703.727 604.912 705.469 602.52 706.778C601.124 707.545 600.769 708.723 601.572 710.11C602.307 711.377 603.217 712.54 603.906 713.828C604.45 714.85 604.834 715.971 605.178 717.086C605.526 718.207 605.693 719.385 606.035 720.51C606.408 721.734 606.88 722.926 607.324 724.129C608.49 727.297 609.254 730.675 611.45 733.343C614.431 736.97 616.602 740.887 616.762 745.702C616.769 745.922 616.875 746.138 616.929 746.358C617.309 747.983 617.693 749.605 618.055 751.23C618.243 752.074 618.272 752.983 618.595 753.77C619.618 756.258 620.72 758.717 621.843 761.161C623.154 764.025 624.632 766.817 625.837 769.723C627.876 774.645 626.97 779.502 625.147 784.271C624.941 784.807 624.533 785.286 624.135 785.718C623.133 786.804 622.646 788.046 622.998 789.497C623.687 792.336 624.451 795.157 625.158 797.988C625.321 798.641 625.371 799.322 625.474 799.989L625.46 800ZM202.084 550.146C204.002 549.032 205.754 548.028 207.492 546.995C207.758 546.836 207.957 546.559 208.167 546.321C210.871 543.231 213.539 540.108 216.282 537.053C217.586 535.602 219.264 534.431 220.333 532.838C221.346 531.33 222.351 529.851 223.581 528.516C223.758 528.325 223.808 528.02 223.964 527.803C224.81 526.618 225.556 525.337 226.551 524.291C228.96 521.754 231.469 519.309 233.981 516.871C235.086 515.8 236.191 514.682 237.467 513.841C240.849 511.606 244.292 509.452 247.778 507.383C250.077 506.021 250.82 504.084 250.699 501.525C250.564 498.719 250.646 495.905 250.624 493.095C250.61 491.303 250.176 490.888 248.386 490.884C248.066 490.884 247.746 490.852 247.426 490.835C242.907 490.59 238.586 491.211 234.603 493.567C234.002 493.921 233.121 493.996 232.403 493.918C231.199 493.783 230.03 493.325 228.825 493.169C227.34 492.974 225.798 492.697 224.345 492.903C220.955 493.389 217.608 494.177 214.232 494.791C209.016 495.738 203.782 496.59 198.577 497.594C196.018 498.087 195.34 499.006 195.581 501.635C195.837 504.449 196.36 507.234 196.701 510.041C196.964 512.212 196.967 514.423 197.365 516.563C198.093 520.462 199.099 524.308 199.863 528.201C200.805 533.001 201.593 537.83 202.496 542.638C202.905 544.82 203.235 546.967 202.212 549.082C202.07 549.376 202.126 549.77 202.087 550.153L202.084 550.146ZM181.376 562.114C181.329 561.923 181.287 561.731 181.241 561.54C180.697 561.586 180.15 561.603 179.61 561.678C177.073 562.029 174.571 562.867 171.96 561.855C171.434 561.65 170.41 562.008 169.973 562.455C169.288 563.158 169.572 564.052 170.261 564.765C171.128 565.659 172.112 565.336 173.068 565.031C175.193 564.353 177.311 563.651 179.425 562.93C180.089 562.703 180.725 562.391 181.372 562.118L181.376 562.114Z" fill="#808080" fill-opacity="0.08"/>
</svg>
